<svg width="131" height="48" viewBox="0 0 131 48" xmlns="http://www.w3.org/2000/svg">
    <defs>
        <linearGradient x1="-.002%" y1="50.003%" x2="100.017%" y2="50.003%" id="ghkwbgze5a">
            <stop stop-color="#B389FF" offset="0%"/>
            <stop stop-color="#6520FF" offset="100%"/>
        </linearGradient>
        <linearGradient x1="-.036%" y1="50.009%" x2="100%" y2="50.009%" id="vl7r9sah5b">
            <stop stop-color="#B389FF" offset="0%"/>
            <stop stop-color="#6520FF" offset="100%"/>
        </linearGradient>
        <linearGradient x1="-1.418%" y1="49.976%" x2="102.547%" y2="49.976%" id="r9kp27r6ac">
            <stop stop-color="#FFF" stop-opacity="0" offset="0%"/>
            <stop stop-color="#FFF" stop-opacity=".6" offset="49%"/>
            <stop stop-color="#FFF" stop-opacity="0" offset="100%"/>
        </linearGradient>
        <linearGradient x1="39.223%" y1="38.334%" x2="68.519%" y2="60.322%" id="51woaux8md">
            <stop stop-color="#FFF" stop-opacity=".42" offset="0%"/>
            <stop stop-color="#FFF" stop-opacity=".38" offset="3%"/>
            <stop stop-color="#FFF" stop-opacity=".26" offset="12%"/>
            <stop stop-color="#FFF" stop-opacity=".17" offset="23%"/>
            <stop stop-color="#FFF" stop-opacity=".09" offset="34%"/>
            <stop stop-color="#FFF" stop-opacity=".04" offset="48%"/>
            <stop stop-color="#FFF" stop-opacity=".01" offset="66%"/>
            <stop stop-color="#FFF" stop-opacity="0" offset="100%"/>
        </linearGradient>
    </defs>
    <g fill-rule="nonzero" fill="none">
        <path d="M45.657 23.878c0-3.639 2.264-5.275 5.169-5.275 2.125 0 3.639.887 3.975 2.722l-1.865.55c-.26-1.024-1.055-1.498-2.125-1.498-1.667 0-2.907 1.092-2.907 3.363s1.164 3.56 3.35 3.56c1.391 0 2.62-.566 3.073-.948l.352 1.636c-.933.688-2.294 1.092-3.792 1.092-3.24-.018-5.23-1.714-5.23-5.202zM57.352 23.85c0-3.443 1.965-5.242 5.124-5.242 3.158 0 5.075 1.83 5.075 5.198 0 3.367-2.018 5.259-5.152 5.259-3.03-.003-5.047-1.791-5.047-5.216zm7.952-.033c0-2.385-1.055-3.495-2.84-3.495-1.784 0-2.86 1.092-2.86 3.519 0 2.339 1.118 3.494 2.839 3.494 1.72 0 2.859-1.177 2.859-3.518h.002zM80.653 23.559c0 3.256-1.911 5.32-5.932 5.32h-3.713V18.782h3.748c3.726 0 5.897 1.64 5.897 4.777zm-2.247.135c0-2.354-1.178-3.276-3.7-3.276h-1.542v6.851h1.575c2.444-.01 3.667-1.218 3.667-3.575zM84.106 18.782h2.162v10.093h-2.162zM99.61 18.782v10.093h-.893l-6.115-6.129v6.133h-2.095V18.782h.902l6.133 6.041v-6.04zM112.987 23.45l-.015.902c-.077 3.808-2.621 4.71-4.772 4.71-2.92 0-5.137-1.513-5.137-5.138 0-3.713 2.324-5.32 5.32-5.32 2.385 0 3.9.962 4.15 2.766l-1.911.52c-.188-.948-.876-1.579-2.296-1.579-1.747 0-3.011.994-3.011 3.516 0 2.204.917 3.495 2.935 3.495 1.31 0 2.448-.474 2.693-2.156h-2.545v-1.73l4.59.014zM127.875 28.879l-2.599-3.531-2.46 3.531H120.4l3.73-5.108-3.654-4.989h2.523l2.476 3.379 2.34-3.379h2.402l-3.61 4.943 3.778 5.154z" fill="#FFF"/>
        <path d="m24.024 22.768-6.198-6.77-.389-.437-.033-.037-8.38-9.173a5.07 5.07 0 0 0-8.618 4.787H6.88a.663.663 0 0 1 0 1.326H.989c.163.26.35.506.557.732l1.175 1.286h2.684a.662.662 0 0 1 0 1.324H3.931l1.84 2.011h1.373a.655.655 0 1 1 0 1.31h-.155l6.434 7.06L1.546 39.178a5.067 5.067 0 1 0 7.48 6.838l1.99-2.184 10.606-11.59.126-.14.389-.437 1.894-2.07a5.067 5.067 0 0 0-.007-6.828zM8.88 11.342a.67.67 0 0 1 .47-.204h.696a.663.663 0 0 1 0 1.326H9.35a.655.655 0 0 1-.47-1.131v.009zm-1.498 4.466a.663.663 0 0 1 0-1.326h.699a.663.663 0 0 1 0 1.326h-.7zm2.898 3.138a.655.655 0 0 1-.467.195H9.12a.662.662 0 0 1 0-1.324h.693a.655.655 0 0 1 .467 1.13zm.485-3.333a.67.67 0 0 1-.467.195h-.16a.663.663 0 0 1 0-1.326h.16a.655.655 0 0 1 .467 1.131zm2.103 3.333a.655.655 0 0 1-.467.195h-.57a.655.655 0 0 1-.655-.656.655.655 0 0 1 .18-.474.655.655 0 0 1 .468-.194h.57a.655.655 0 0 1 .468 1.13h.006z" fill="url(#ghkwbgze5a)"/>
        <path d="m24.024 22.768-6.198-6.77-.389-.437-.033-.037-.356.389-1.688 1.847c-2.206 2.387-2.016 5.082-.258 7.138l6.52 7.344.126-.14.389-.436 1.894-2.07a5.067 5.067 0 0 0-.007-6.828z" opacity=".33" fill="#000"/>
        <path d="M33.114 36.613a.663.663 0 0 1 0-1.326h5.912a5.156 5.156 0 0 0-.61-.817l-1.091-1.192h-2.737a.655.655 0 0 1-.46-1.123.655.655 0 0 1 .469-.194h1.529l-1.837-2.018H32.86a.655.655 0 1 1 0-1.31h.219L26.55 21.49 38.417 8.487a5.067 5.067 0 1 0-7.48-6.838L17.831 15.987l-1.889 2.07a5.07 5.07 0 0 0 0 6.84l6.19 6.771 8.803 9.63a5.067 5.067 0 0 0 8.645-4.694l-6.467.009zm-3.412-7.8a.655.655 0 0 1 .47-.194h.69a.662.662 0 0 1 0 1.324h-.69a.655.655 0 0 1-.47-1.13zm-1.08.937a.655.655 0 0 1-.468.193h-.57a.655.655 0 0 1-.46-1.123.655.655 0 0 1 .466-.194h.584a.655.655 0 0 1 .467 1.131l-.02-.007zm.403 2.866c0-.362.294-.655.656-.655h.159a.662.662 0 0 1 0 1.323h-.138a.655.655 0 0 1-.668-.668h-.009zm2.077 3.802a.655.655 0 0 1-.467.195h-.69a.663.663 0 0 1 0-1.326h.69a.655.655 0 0 1 .467 1.131zm.147-3.802c0-.362.293-.655.655-.655h.692a.662.662 0 0 1 0 1.323h-.692a.655.655 0 0 1-.647-.668h-.008z" fill="url(#vl7r9sah5b)"/>
        <path d="M32.004 1.647c-1.509 1.965-3.083 3.865-4.684 5.748-.795.946-1.61 1.874-2.416 2.809l-2.455 2.773c-.827.915-1.653 1.833-2.49 2.748l-1.24 1.367c-.415.456-.828.913-1.234 1.374-.41.445-.796.912-1.155 1.4a3.237 3.237 0 0 0-.592 1.611c-.016.594.135 1.181.437 1.693.31.529.69 1.014 1.129 1.441a6.187 6.187 0 0 1-1.31-1.334 3.326 3.326 0 0 1-.625-1.806c0-.66.187-1.307.537-1.867.165-.277.345-.544.54-.8.183-.25.375-.496.567-.74 1.53-1.966 3.176-3.802 4.805-5.65l2.479-2.752c.839-.904 1.669-1.82 2.518-2.715 1.695-1.8 3.41-3.58 5.19-5.3z" fill="url(#r9kp27r6ac)"/>
        <path d="m11.016 43.84-1.99 2.183a5.07 5.07 0 0 1-7.48-6.844l11.875-12.993c1.898 6.524-.099 13.307-2.405 17.653z" fill="url(#51woaux8md)"/>
    </g>
</svg>
