<svg width="187" height="66" viewBox="0 0 187 66" xmlns="http://www.w3.org/2000/svg" xmlns:xlink="http://www.w3.org/1999/xlink">
    <defs>
        <circle id="0sxl8u99xa" cx="33" cy="33" r="33"/>
        <mask id="dj2wd2txxb" maskContentUnits="userSpaceOnUse" maskUnits="objectBoundingBox" x="0" y="0" width="66" height="66" fill="#fff">
            <use xlink:href="#0sxl8u99xa"/>
        </mask>
    </defs>
    <g fill="none" fill-rule="evenodd">
        <path stroke="#00C953" stroke-width="2" stroke-dasharray="6" d="M67 33.5h119.742"/>
        <use stroke="#00C953" mask="url(#dj2wd2txxb)" stroke-width="4" stroke-dasharray="6" xlink:href="#0sxl8u99xa"/>
        <path d="M15 15h36v36H15z"/>
        <path d="M46.5 24.9a4.502 4.502 0 0 0-4.482 4.896l-2.862.864a6.738 6.738 0 0 0-5.256-3.906V23.91a4.5 4.5 0 1 0-1.8 0v2.844a6.833 6.833 0 0 0-5.256 3.906l-2.862-.864C24 29.67 24 29.544 24 29.4c0-2.484-2.016-4.5-4.5-4.5a4.502 4.502 0 0 0-4.5 4.5c0 2.484 2.016 4.5 4.5 4.5 1.71 0 3.204-.954 3.96-2.376l2.88.864a6.719 6.719 0 0 0 1.782 5.724l-2.07 2.574A4.596 4.596 0 0 0 24 40.2a4.502 4.502 0 0 0-4.5 4.5c0 2.484 2.016 4.5 4.5 4.5s4.5-2.016 4.5-4.5a4.48 4.48 0 0 0-1.044-2.88l2.07-2.574a6.775 6.775 0 0 0 6.948 0l2.07 2.574A4.48 4.48 0 0 0 37.5 44.7c0 2.484 2.016 4.5 4.5 4.5s4.5-2.016 4.5-4.5-2.016-4.5-4.5-4.5c-.738 0-1.44.18-2.052.486l-2.07-2.574a6.719 6.719 0 0 0 1.782-5.724l2.862-.864a4.512 4.512 0 0 0 3.96 2.376c2.484 0 4.5-2.016 4.5-4.5.018-2.484-1.998-4.5-4.482-4.5zm-27 6.3c-.99 0-1.8-.81-1.8-1.8s.81-1.8 1.8-1.8 1.8.81 1.8 1.8-.81 1.8-1.8 1.8zM24 46.5c-.99 0-1.8-.81-1.8-1.8s.81-1.8 1.8-1.8 1.8.81 1.8 1.8-.81 1.8-1.8 1.8zm7.2-27c0-.99.81-1.8 1.8-1.8s1.8.81 1.8 1.8-.81 1.8-1.8 1.8-1.8-.81-1.8-1.8zm1.8 18a4.056 4.056 0 0 1-4.05-4.05A4.056 4.056 0 0 1 33 29.4a4.056 4.056 0 0 1 4.05 4.05A4.056 4.056 0 0 1 33 37.5zm9 5.4c.99 0 1.8.81 1.8 1.8s-.81 1.8-1.8 1.8-1.8-.81-1.8-1.8.81-1.8 1.8-1.8zm4.5-11.7c-.99 0-1.8-.81-1.8-1.8s.81-1.8 1.8-1.8 1.8.81 1.8 1.8-.81 1.8-1.8 1.8z" fill="#00C953" fill-rule="nonzero"/>
    </g>
</svg>
