<svg width="350" height="488" viewBox="0 0 350 488" xmlns="http://www.w3.org/2000/svg" xmlns:xlink="http://www.w3.org/1999/xlink">
    <defs>
        <linearGradient x1="50%" y1="100%" x2="50%" y2="0%" id="k9le8om0jd">
            <stop stop-color="#6520FF" offset="0%"/>
            <stop stop-color="#6024EC" offset="6%"/>
            <stop stop-color="#532EBC" offset="22%"/>
            <stop stop-color="#493795" offset="39%"/>
            <stop stop-color="#413E76" offset="55%"/>
            <stop stop-color="#3B4360" offset="71%"/>
            <stop stop-color="#384653" offset="86%"/>
            <stop stop-color="#37474F" offset="100%"/>
        </linearGradient>
        <linearGradient x1="-.041%" y1="93.547%" x2="80.627%" y2="22.118%" id="zo3kf91f2e">
            <stop stop-color="#6520FF" offset="0%"/>
            <stop stop-color="#6B28FF" offset="16%"/>
            <stop stop-color="#7D41FF" offset="43%"/>
            <stop stop-color="#9A68FF" offset="76%"/>
            <stop stop-color="#B389FF" offset="100%"/>
        </linearGradient>
        <linearGradient x1="-9.574%" y1="83.915%" x2="87.277%" y2="4.265%" id="h1lkxjo2xf">
            <stop stop-color="#EEE" stop-opacity="0" offset="0%"/>
            <stop stop-color="#EEE" stop-opacity=".02" offset="15%"/>
            <stop stop-color="#EEE" stop-opacity=".08" offset="33%"/>
            <stop stop-color="#EEE" stop-opacity=".18" offset="53%"/>
            <stop stop-color="#EEE" stop-opacity=".32" offset="73%"/>
            <stop stop-color="#EEE" stop-opacity=".5" offset="94%"/>
            <stop stop-color="#EEE" stop-opacity=".55" offset="100%"/>
        </linearGradient>
        <linearGradient x1="5.987%" y1="26.497%" x2="94.216%" y2="73.568%" id="bh5nhmrlhg">
            <stop stop-color="#38385C" offset="0%"/>
            <stop stop-color="#536D9C" offset="100%"/>
        </linearGradient>
        <linearGradient x1="27.701%" y1="54.295%" x2="69.421%" y2="43.798%" id="ayrbpjpchh">
            <stop stop-color="#38385C" offset="0%"/>
            <stop stop-color="#536D9C" offset="100%"/>
        </linearGradient>
        <linearGradient x1="74.814%" y1="34.229%" x2="43.39%" y2="66.103%" id="z9pvriqboi">
            <stop stop-color="#FFD741" stop-opacity=".24" offset="0%"/>
            <stop stop-color="#FFD741" stop-opacity=".14" offset="23%"/>
            <stop stop-color="#FFD741" stop-opacity=".06" offset="49%"/>
            <stop stop-color="#FFD741" stop-opacity=".02" offset="74%"/>
            <stop stop-color="#FFD741" stop-opacity="0" offset="100%"/>
        </linearGradient>
        <linearGradient x1="101.567%" y1="20.954%" x2="7.813%" y2="85.647%" id="110ln9ixqj">
            <stop stop-color="#FFD741" stop-opacity=".24" offset="0%"/>
            <stop stop-color="#FFD741" stop-opacity=".14" offset="23%"/>
            <stop stop-color="#FFD741" stop-opacity=".06" offset="49%"/>
            <stop stop-color="#FFD741" stop-opacity=".02" offset="74%"/>
            <stop stop-color="#FFD741" stop-opacity="0" offset="100%"/>
        </linearGradient>
        <linearGradient x1="-.159%" y1="50.018%" x2="100.136%" y2="50.018%" id="d957l0snkk">
            <stop stop-color="#536D9C" offset="0%"/>
            <stop stop-color="#38385C" offset="100%"/>
        </linearGradient>
        <linearGradient x1="50%" y1="100%" x2="50%" y2="66.911%" id="ra97b8gnql">
            <stop stop-opacity=".42" offset="0%"/>
            <stop stop-opacity="0" offset="100%"/>
        </linearGradient>
        <filter x="-4.1%" y="-2.9%" width="108.2%" height="105.8%" filterUnits="objectBoundingBox" id="etijgj2ria">
            <feOffset dy="2" in="SourceAlpha" result="shadowOffsetOuter1"/>
            <feGaussianBlur stdDeviation="2.5" in="shadowOffsetOuter1" result="shadowBlurOuter1"/>
            <feColorMatrix values="0 0 0 0 0 0 0 0 0 0 0 0 0 0 0 0 0 0 0.24 0" in="shadowBlurOuter1" result="shadowMatrixOuter1"/>
            <feMerge>
                <feMergeNode in="shadowMatrixOuter1"/>
                <feMergeNode in="SourceGraphic"/>
            </feMerge>
        </filter>
        <rect id="7xgnz25mmb" x="0" y="0" width="329.64" height="467.4" rx="12.3"/>
    </defs>
    <g fill="none" fill-rule="evenodd">
        <g filter="url(#etijgj2ria)" transform="translate(10 10)">
            <mask id="gexaefiyvc" fill="#fff">
                <use xlink:href="#7xgnz25mmb"/>
            </mask>
            <use fill="#23293D" xlink:href="#7xgnz25mmb"/>
            <g mask="url(#gexaefiyvc)">
                <path fill="url(#k9le8om0jd)" fill-rule="nonzero" d="M0 0h335v475H0z" transform="translate(-2.5 -4)"/>
                <g transform="translate(-4 93.5)">
                    <g fill-rule="nonzero">
                        <path d="M215.675 143.625c0 17.275-3.075 33.875-8.725 49.225-4.575 12.425-10.9 24.1-18.55 34.675H.925V20.4c2.15-1.275 4.35-2.475 6.6-3.6 10.625-5.525 22-9.725 33.975-12.375 1.3-.325 2.625-.6 3.95-.85C54.35 1.8 63.55.9 72.975.9c76.55 0 139.05 60.275 142.575 135.975.1 2.225.15 4.475.15 6.75h-.025z" fill="url(#zo3kf91f2e)" transform="translate(0 150)"/>
                        <g opacity=".33" fill="#6520FF">
                            <path d="M215.525 286.875c-5-13.475-8.125-26.575-17.7-25.7C178.05 262.975 163.4 197.8 129 224.8c-34.425 27.025-54.4 19.9-48.475-12.425 5.9-32.35-4.125-42.85-24.45-35.85C42.7 181.125 34.05 163.15 41.5 154.45c1.3-.325 2.625-.6 3.95-.85 8.9-1.775 18.1-2.675 27.525-2.675 76.55 0 139.05 60.275 142.575 135.975l-.025-.025zM59.65 373.725c-.65 1.15-1.3 2.4-1.9 3.75H.925V297.25c5.65-5.6 14.65-11.725 23.6-6.5 3.75 2.2 7.475 6.375 10.95 13.425C52.55 338.9 84.025 313.95 86.2 338.9c1.95 22.775-15.925 16.675-26.525 34.775l-.025.05zM10.5 233.1c1.325-5.9 6.725-27.625 19.525-14.225 12.8 13.4 14.3 1.75 22.875 5.275 8.575 3.525 8.8 30.525-9.3 26.3-18.1-4.225-20.05 9.25-27.7 3.525-8.4-6.25-6.575-15.625-5.4-20.9v.025z"/>
                        </g>
                    </g>
                    <path fill="url(#h1lkxjo2xf)" fill-rule="nonzero" d="M191.85 174.325 11.1 319.65v-82.575l108.3-87.35 52.575.6z"/>
                    <path d="M125.05 171.85s-.6 2.375-2.575 3.6c-1.875 1.15-3.425.275-3.875-1.75l-.05-.425s-1.575.2-2.575-1.475c-1-1.675-.025-2.85-.025-2.85s-1.3-.6-1.35-2.125c-.05-1.525 2.6-3.475 5.9-2.5l4.575 7.5-.025.025zM173.2 184.6c0 .175-.025.35-.05.525 0 .125-.05.25-.075.35 0 .1-.05.2-.075.275-.7 2.675-3.025 3.975-4.225 3.5-1.4-.575-1.5-2-1.5-2h-.025s-.45.125-.875.05c-.5-.075-1.15-.35-1.75-1.075 0 0-.025-.05-.05-.075 0-.025-.05-.075-.075-.1 0 0-.025-.05-.05-.075-.05-.05-.075-.125-.1-.175-.8-1.35-.175-2.5-.175-2.5l-.375-.2c-1.725-1.125-2-2.9-.275-4.25 1.325-1.025 2.95-1.175 3.75-1.175h.5l2.875 3.65.15.175.15.175.275.35 2 2.55-.025.025z" fill="#FFF" fill-rule="nonzero"/>
                    <path d="M223.625 98.525c-.4-.5-.7-.9-.9-1.2 3.2 2.075 4.05 5.15.9 1.2z" fill="#000" fill-rule="nonzero" opacity=".15"/>
                    <path d="M113.725 161.7s27.225-11.55 58.575 5.825c0 0 30.25-35.45 43.125-51.55l-38.925-5.6-48.875 34.525-13.9 16.8z" fill="#82B1FF" fill-rule="nonzero"/>
                    <path d="M184.9 109s-40.475 23.525-71.2 52.7c0 0-.15-7.675 12.65-19.425 27.7-25.45 62.725-39.025 62.725-39.025L184.9 109z" fill="#2979FF" fill-rule="nonzero"/>
                    <path d="M264.525 97.675c0 5.9-22.625 18.575-38.925 31.325-14.325 11.225-28.6 24.375-33.475 28.575 0 0 2.125 1.1 3.725 3.425a9.784 9.784 0 0 1 1.725 4.45c.65 5.25-9.875 13.625-24.425 19.7-.35.15-.7.275-1.05.425 0 0-3.2.65-5.35-1.225a4.985 4.985 0 0 1-1.125-1.425c-.65-1.225.175-3.15 1.625-5.225 3.35-4.775 10.075-10.375 10.075-10.375s-12.45-10.25-18.325-8.375c-3.95 1.25-25.925 10.175-34.075 13.475-2.425 1-5.175.225-6.325-1.325-1.475-2-1.625-4.25.125-6.425 3.725-4.7 12.2-12.975 29.775-29.425 12.5-11.7 17.475-15.525 22.45-20.375a38.993 38.993 0 0 1 5.525-4.475c.325-.225.675-.45 1-.65a38.564 38.564 0 0 1 22.025-5.8l35.7 1.5c3.55-2 8.2-4.7 12.45-6.525 1.775-.775 9.125-3.325 10.65-3.725 4.075-1.1 6.225-.125 6.225 2.525v-.05z" fill="#FFF" fill-rule="nonzero"/>
                    <circle fill="url(#bh5nhmrlhg)" fill-rule="nonzero" cx="196.8" cy="132.4" r="8.85"/>
                    <path d="M195.75 140.075c1.075.575 2.25.85 3.4.85-2.1.575-4.45.4-6.525-.725-4.3-2.3-5.95-7.65-3.65-11.975 2.3-4.325 7.65-5.95 11.975-3.65a8.772 8.772 0 0 1 4.225 5.025 7.374 7.374 0 0 0-2.6-2.35c-3.525-1.875-7.925-.55-9.825 2.975-1.9 3.525-.55 7.925 2.975 9.825l.025.025z" fill="#458AFF" fill-rule="nonzero"/>
                    <path d="M247.65 98.875c-5.9 11.75-20.475 23.075-37.8 24.1-15.6.925-35.925-6.15-41.65-12.025 6.525-4.075 23.5-7.4 31.3-7.075l35.7 1.5c3.55-2.025 8.2-4.7 12.45-6.525v.025z" fill="#000" fill-rule="nonzero" opacity=".15"/>
                    <path d="M257.4 95.7s1.725-1.825 2.6-1.625c.875.2.25 1.5-.375 2.55l-2.25-.925h.025z" fill="#FFF" fill-rule="nonzero"/>
                    <g transform="translate(130)">
                        <path d="m43.3 55.6-2.225 6.275-1.025 2.875-.675 1.9-5.05 14.225-.5 1.425-3.025 8.55-.5 1.425-1.125 3.175c-.675-.5-1.325-1-1.95-1.525-.25-.2-.475-.375-.7-.575-20.4-16.8-26.4-39.125-26.4-39.125 12.825-4.95 24.5-4.075 32.475-2.275.55.125 1.1.25 1.625.4.475.125.9.25 1.35.375 4.875 1.375 7.75 2.9 7.75 2.9L43.3 55.6z" fill="#FCC" fill-rule="nonzero"/>
                        <path d="m43.3 55.6-2.225 6.275-1.025 2.875-.675 1.9a61.11 61.11 0 0 0-10.35-6C14 53.75.1 54.225.1 54.225c12.825-4.95 24.5-4.075 32.475-2.275.55.125 1.1.25 1.625.4.475.125.9.25 1.35.375 4.875 1.375 7.75 2.9 7.75 2.9V55.6z" fill="#FFF" fill-rule="nonzero"/>
                        <path d="M126.825 47.625 111.35 43.7l-14.125-3.6-11.375-2.9s.35-3.4 2.025-8.425c.35-1.05.75-2.175 1.25-3.375.375-.95.8-1.925 1.275-2.925 3.275-7 8.875-15.275 18.35-21.925 0 0 13.075 14.975 17.075 38.125.2 1.125.375 2.25.525 3.4.225 1.8.4 3.65.525 5.55h-.05z" fill="#FCC" fill-rule="nonzero"/>
                        <path d="M108.725.55s-6.825 9.475-9.975 23.625c-.2.95-.4 1.9-.575 2.9-.375 2.1-.65 4.3-.825 6.575-.15 2.1-.2 4.25-.125 6.45L85.85 37.2s.35-3.4 2.025-8.425c.35-1.05.75-2.175 1.25-3.375.375-.95.8-1.925 1.275-2.925 3.275-7 8.875-15.275 18.35-21.925h-.025z" fill="#FFF" fill-rule="nonzero"/>
                        <path d="M139.05 59.9v.25c0 .8-.05 1.6-.15 2.425 0 .125 0 .225-.025.35 0 .1 0 .225-.05.35-.05.475-.125.95-.225 1.45 0 .1-.025.2-.05.3-.075.45-.175.875-.275 1.325-.025.15-.075.3-.1.425-.05.175-.075.35-.125.5-.05.15-.075.3-.125.475-.05.15-.075.325-.125.475-.1.325-.175.625-.275.95-.05.15-.1.325-.15.475-.1.325-.2.65-.325.975-1.175 3.4-2.825 6.9-4.975 10.475-.475.775-.95 1.575-1.475 2.35-.4.625-.825 1.275-1.275 1.9a75 75 0 0 1-2.75 3.725c-.7.875-1.4 1.775-2.15 2.65l-.45.525c-.45.525-.925 1.05-1.4 1.6l-.475.525c-.15.175-.325.35-.475.525-.15.175-.325.35-.5.525-.175.175-.325.35-.5.525-.325.35-.675.7-1 1.05-.35.35-.675.7-1.025 1.05 0 0-.225.225-.325.35l-.8.8-.375.375c-.05.05-.1.1-.175.15-.4.375-.8.775-1.2 1.125-.125.125-.25.225-.4.35-.125.125-.25.225-.4.35-.275.225-.525.475-.8.7-.7.6-1.425 1.2-2.15 1.75-.475.375-.975.75-1.45 1.125-.5.375-1 .725-1.5 1.075a63.55 63.55 0 0 1-7.05 4.35 69.995 69.995 0 0 1-9.8 4.35c-.9.325-1.8.625-2.725.9a67.1 67.1 0 0 1-3.2.9c-.8.2-1.6.4-2.425.575-.3.075-.625.125-.925.2-20.85 4.375-38.825 1.775-47.5-6.625-.375-.375-.75-.75-1.1-1.15-.225-.25-.425-.5-.625-.75-.075-.1-.15-.175-.225-.275a.76.76 0 0 1-.125-.175c-.15-.2-.3-.425-.45-.625-.425-.65-.825-1.3-1.175-2-.075-.15-.15-.3-.2-.45-.075-.15-.15-.3-.2-.45-.075-.15-.125-.3-.2-.475l-.15-.375c0-.05-.025-.1-.05-.15 0-.05-.05-.125-.075-.175 0-.05-.05-.125-.075-.175v-.1l-.15-.45c0-.075-.05-.15-.075-.25a.463.463 0 0 0-.05-.175v-.05s-.05-.175-.075-.25c-.05-.225-.125-.475-.175-.7v-.05c-.025-.125-.075-.25-.1-.4l-.075-.375c-.15-.65-.275-1.3-.425-1.95-.05-.2-.075-.425-.125-.625s-.075-.4-.125-.625c0-.05 0-.1-.025-.175 0-.05 0-.125-.025-.175a3.881 3.881 0 0 0-.1-.525c-.025-.175-.05-.35-.1-.525-.05-.3-.1-.575-.15-.875 0 0 0-.125-.025-.2-.025-.225-.075-.45-.1-.675 0-.075 0-.175-.025-.25v-.3l-.075-.3c0-.1-.025-.2-.05-.3v-.175c-.05-.35-.1-.675-.125-1.025V92c-.025-.3-.075-.6-.1-.9-.025-.35-.075-.65-.1-.975 0-.175-.025-.35-.05-.525l-.05-.55c0-.275-.05-.55-.075-.825-.025-.55-.075-1.1-.1-1.65v-.425c0-.225 0-.45-.025-.7v-1.5c0-.4-.025-.775-.025-1.175V78.95c0-.325.025-.675.05-1.025 0-.375.05-.725.075-1.05v-.525l.05-.2c0-.15.025-.325.05-.475 0-.15.025-.325.05-.475v-.275c0-.1 0-.175.025-.275 0-.175.025-.375.05-.55.025-.175.05-.375.075-.55v-.2l.15-1.2c.025-.3.075-.6.125-.875.125-.825.25-1.65.425-2.475 0-.05 0-.1.025-.175.05-.35.125-.7.2-1.075 0-.1.05-.225.075-.325.075-.325.15-.675.225-1.025.025-.175.075-.35.125-.525l.225-.975c.025-.125.05-.225.075-.35.1-.375.2-.725.3-1.1.15-.55.3-1.075.475-1.625v-.075s.1-.225.125-.35c.025-.125.075-.225.1-.35l.05-.175c.2-.65.425-1.3.65-1.925.075-.225.175-.45.25-.7 0-.05.05-.125.075-.175.025-.05.05-.125.075-.175l.075-.225.075-.225c.35-.875.7-1.75 1.075-2.6.1-.225.2-.45.3-.65.175-.4.375-.8.575-1.2l.15-.3c.075-.175.175-.325.25-.5a.19.19 0 0 1 .05-.1c.225-.425.425-.825.65-1.25.075-.125.125-.25.2-.375L36 49.6c.1-.2.2-.35.3-.525.05-.075.1-.15.125-.225.025-.05.075-.125.1-.175.025-.05.075-.125.1-.175l.375-.6.225-.375c.1-.175.225-.35.325-.525.075-.125.15-.225.225-.35.125-.175.25-.375.375-.55.15-.225.3-.425.45-.65v-.05c.175-.275.375-.525.575-.8.2-.275.4-.525.6-.8.125-.175.275-.35.4-.525.175-.25.375-.475.55-.7.1-.15.225-.275.325-.4.15-.175.275-.35.425-.525.1-.125.175-.225.275-.35.175-.225.375-.45.575-.675l.025-.025.075-.075c.175-.175.325-.375.5-.55.275-.3.575-.6.85-.9.225-.25.45-.475.7-.7.225-.225.475-.475.725-.7l.675-.675s.05-.025.05-.05l.775-.7c.05-.05.1-.1.175-.15l.05-.05c.175-.15.325-.3.5-.45l.05-.05s.2-.175.3-.25c.1-.075.2-.175.3-.25.05-.05.1-.075.15-.125l.4-.325c.175-.125.325-.275.5-.4a.345.345 0 0 1 .1-.075l.3-.225.3-.225c.4-.325.825-.625 1.25-.925.175-.125.325-.225.5-.35.025 0 .05-.025.075-.05.125-.1.25-.175.375-.275.15-.1.3-.225.475-.325.375-.275.775-.525 1.175-.775l.45-.3c.375-.225.75-.475 1.15-.7.15-.1.275-.175.425-.25.65-.375 1.3-.75 1.975-1.1h.075c.6-.35 1.175-.65 1.775-.95.65-.325 1.275-.625 1.925-.9.375-.175.75-.325 1.1-.475 1.275-.525 2.55-1.025 3.85-1.45 2.15-.725 4.3-1.3 6.45-1.725.925-.175 1.825-.35 2.75-.475 3.125-.45 6.25-.625 9.325-.525.4 0 .775.025 1.175.05.3 0 .6.025.925.05.375.025.775.05 1.15.1.225 0 .45.05.7.075.475.05.925.1 1.4.175 2.6.325 5.15.85 7.675 1.5.225.075.475.125.7.2 9.95 2.775 19.2 8 27.05 14.5.125.1.25.225.375.325.375.3.725.625 1.075.925a80.262 80.262 0 0 1 6.125 5.875l.95 1.025c.625.675 1.175 1.4 1.675 2.15.15.225.275.425.4.65l.375.675c.3.575.575 1.15.8 1.75.05.1.1.225.125.325.025.075.05.15.1.25.025.075.05.175.1.25.075.2.125.375.2.575 0 .05.025.125.05.175.025.1.05.175.075.275l.075.3c.075.25.125.5.175.75l.05.225c.05.2.075.425.125.625 0 .1.025.2.05.3 0 .1.025.2.05.3.05.3.1.625.125.925 0 .1 0 .2.025.325.075.725.1 1.475.1 2.25l.15-.1z" fill="#FFF" fill-rule="nonzero"/>
                        <ellipse fill="#EBF1F7" fill-rule="nonzero" transform="rotate(-30.12 101.534 86.801)" cx="101.534" cy="86.801" rx="23.975" ry="14"/>
                        <circle fill="#38385C" fill-rule="nonzero" cx="105.45" cy="46.7" r="3.75"/>
                        <path d="M81.05 75.875c-1.475 9.825-12.125 20.7-43.675 34.2l-1.925.775a20.24 20.24 0 0 1-2.075-2.35c-.625-.825-1.15-1.7-1.6-2.625l-.225-.45c-.075-.15-.15-.3-.2-.45-.075-.15-.125-.3-.2-.475l-.15-.375c0-.05-.025-.1-.05-.15a2.2 2.2 0 0 1-.125-.375c0-.025 0-.05-.025-.1l-.15-.45c-.05-.125-.075-.3-.125-.425v-.05s-.05-.175-.075-.25c-.05-.225-.1-.475-.175-.7v-.075c-.075-.275-.15-.525-.2-.775-.15-.65-.275-1.3-.425-1.95-.05-.2-.075-.425-.125-.625s-.075-.425-.125-.625c0-.1-.05-.225-.075-.35-.05-.35-.125-.7-.175-1.025-.05-.35-.125-.7-.175-1.075-.025-.225-.075-.45-.1-.675 0-.075 0-.175-.025-.25 0-.1-.025-.175-.05-.275-.025-.225-.05-.425-.075-.6v-.2c0-.1 0-.175-.025-.275l-.225-1.8c-.025-.325-.075-.65-.1-.975-.025-.35-.075-.725-.1-1.075 0-.275-.05-.55-.075-.825-.025-.55-.075-1.1-.1-1.675v-.3c0-.275-.025-.55-.05-.825v-.3c0-.4 0-.8-.025-1.2V80.85c0-.375 0-.775.025-1.15v-.85c0-.325.025-.675.05-1.025V77.8c0-.45.05-.9.1-1.35 0-.125 0-.25.025-.4l.075-.95c0-.175.025-.35.05-.525.025-.375.075-.75.125-1.125v-.2l.15-1.2c.15-1.175.35-2.375.575-3.525.05-.35.125-.725.2-1.075 0-.1.05-.225.075-.325.075-.325.15-.675.225-1.025.05-.175.075-.35.125-.525.075-.325.15-.65.25-.975.025-.125.05-.225.075-.35.1-.375.2-.725.3-1.1.15-.575.325-1.125.5-1.7.075-.25.15-.475.225-.7l.05-.175c.2-.65.425-1.3.65-1.925.075-.225.175-.45.25-.7.05-.125.1-.25.125-.375.05-.15.125-.3.175-.45a47.331 47.331 0 0 1 1.375-3.25c.3-.675.625-1.35.975-2a.19.19 0 0 1 .05-.1c.225-.425.425-.825.65-1.25.2-.35.375-.7.575-1.05.15-.275.3-.525.425-.75.075-.125.15-.25.2-.375l.375-.6.225-.375c.45-.7.9-1.4 1.375-2.075 0 0 0-.025.025-.025.375-.55.75-1.075 1.15-1.6.425-.55.85-1.125 1.3-1.65.225-.3.475-.575.7-.85.2-.225.375-.45.575-.675h.025s.05-.075.075-.1c.175-.175.325-.375.5-.55.275-.3.575-.6.85-.9.45-.475.925-.95 1.4-1.425.225-.225.45-.45.675-.65 0 0 .05-.025.05-.05l.775-.7c.075-.075.15-.125.225-.2.175-.15.325-.3.5-.45 0 0 .05-.025.05-.05.2-.175.4-.325.575-.5.05-.05.1-.075.15-.125.125-.1.275-.225.4-.325.15-.125.325-.25.5-.4a.345.345 0 0 1 .1-.075c.2-.15.375-.3.575-.475.4-.325.825-.625 1.25-.925.2-.15.375-.275.575-.4.125-.1.25-.175.375-.25.15-.1.3-.225.475-.325.375-.275.775-.525 1.175-.775l.45-.3c.375-.25.75-.475 1.15-.7.15-.1.275-.175.425-.25.65-.375 1.3-.75 1.975-1.1h.075c.6-.35 1.175-.65 1.775-.95l.125.15s2.525 4.675 5.975 11.15c3.525 6.575 8.025 14.975 11.85 22.25 2.525 4.775 4.225 9.625 3.45 14.725l.125.05z" fill="url(#ayrbpjpchh)" fill-rule="nonzero"/>
                        <circle fill="#444470" fill-rule="nonzero" cx="64.475" cy="70.55" r="9.4"/>
                        <circle fill="#82B1FF" fill-rule="nonzero" cx="64.475" cy="70.55" r="7.4"/>
                        <circle fill="#2979FF" fill-rule="nonzero" cx="66.7" cy="69.775" r="2.575"/>
                        <path d="m99.625 81.175-2.225-.6c-1.05-.275-1.225-1.675-.3-2.225l2.825-1.625c.925-.55 2.05.325 1.775 1.35l-.6 2.225a1.193 1.193 0 0 1-1.475.85v.025z" fill="#38385C" fill-rule="nonzero"/>
                        <g fill="#C8D4E8" fill-rule="nonzero">
                            <path d="M106.15 75.9c2.55-1.1 5.025-2.525 7.3-4.125 2.275-1.625 4.4-3.525 6.1-5.775-1.6 2.325-3.675 4.3-5.925 6.025a42.07 42.07 0 0 1-7.25 4.45c-.15.075-.325 0-.4-.15-.075-.15 0-.325.15-.4l.025-.025zM106.85 76.875a42.377 42.377 0 0 0 8.275-1.375c2.7-.75 5.35-1.8 7.7-3.35-2.3 1.625-4.925 2.8-7.625 3.65-2.7.825-5.475 1.425-8.325 1.7-.175 0-.325-.1-.325-.275 0-.175.1-.325.275-.325l.025-.025zM107.625 78.075c2.725.575 5.55.85 8.35.85s5.625-.325 8.325-1.2c-2.65.975-5.5 1.4-8.325 1.5-2.825.1-5.675-.075-8.475-.575-.175-.025-.275-.175-.25-.35.025-.175.175-.275.35-.25l.025.025zM93.675 83.85a41.51 41.51 0 0 1-7.45 4.075c-2.6 1.1-5.35 1.9-8.175 2.15 2.8-.35 5.5-1.25 8.05-2.425 2.55-1.2 4.975-2.625 7.2-4.3a.312.312 0 0 1 .425.05c.1.125.075.325-.075.425l.025.025zM94.325 84.775a42.639 42.639 0 0 1-5.6 6.4C86.65 93.1 84.35 94.8 81.775 96c2.525-1.275 4.75-3.05 6.725-5.025 1.975-2 3.775-4.175 5.3-6.5.1-.15.275-.2.425-.1.15.1.175.275.1.425v-.025zM95.05 85.9a41.612 41.612 0 0 1-3.725 7.65c-1.5 2.4-3.275 4.65-5.425 6.475 2.1-1.9 3.775-4.2 5.15-6.625 1.375-2.45 2.55-5.025 3.4-7.675.05-.175.225-.275.375-.2.15.075.25.225.2.375h.025z"/>
                        </g>
                        <path d="M106.525 84.075c-.05 1.4-.8 2.775-2.125 3.525a4.32 4.32 0 0 1-4.125.1c1.075-1.1 1.9-2.525 1.675-4.225 0 0 1.5 1.375 4.575.6z" fill="#FF6E6E" fill-rule="nonzero"/>
                        <circle fill="#FFF" fill-rule="nonzero" cx="106.8" cy="45.525" r="1.35"/>
                        <g fill="#67749E" fill-rule="nonzero">
                            <path d="m57.15 48.875-.9.475-7.875-14.5c.125-.1.275-.225.4-.325.15-.125.325-.25.5-.4l7.875 14.75z"/>
                            <path d="M59.225 49.5c-.45-.85-1.4-1.25-2.3-1.025-.175.05-.325.1-.475.175-.15.075-.3.175-.425.3a2.048 2.048 0 0 0-.425 2.475c.525 1 1.775 1.375 2.775.85s1.375-1.775.85-2.775zM57.9 51.375c-.5.275-1.125.075-1.4-.425-.275-.5-.075-1.125.425-1.4.5-.275 1.125-.075 1.4.425.275.5.075 1.125-.425 1.4zM44.55 60.975l-.9.475-6.9-13.025.375-.6.225-.375 7.2 13.525z"/>
                            <path d="M46.65 61.625c-.45-.85-1.4-1.25-2.3-1.025-.175.05-.325.1-.475.175-.15.075-.3.175-.425.3a2.048 2.048 0 0 0-.425 2.475c.525 1 1.775 1.375 2.775.85s1.375-1.775.85-2.775zM45.325 63.5c-.5.275-1.125.075-1.4-.425-.275-.5-.075-1.125.425-1.4.5-.275 1.125-.075 1.4.425.275.5.075 1.125-.425 1.4zM42.825 78.95l-14.7 7.3c0-.275-.025-.55-.05-.825v-.3L42.35 78.05l.475.9z"/>
                            <path d="M45.75 76.825c-.525-1-1.775-1.375-2.775-.85-.825.45-1.25 1.4-1.025 2.275.05.175.1.325.175.5.075.15.175.3.275.4a2.048 2.048 0 0 0 2.475.425c1-.525 1.375-1.775.85-2.775l.025.025zM44.425 78.7c-.5.275-1.125.075-1.4-.425-.275-.5-.075-1.125.425-1.4.5-.275 1.125-.075 1.4.425.275.5.075 1.125-.425 1.4zM56.4 89l-25.85 13.625v-.05s-.05-.175-.075-.25c-.05-.225-.1-.475-.175-.7l25.625-13.5.475.9V89z"/>
                            <path d="M59.3 86.875c-.525-1-1.775-1.375-2.775-.85-.85.45-1.25 1.4-1.025 2.3.05.175.1.325.175.475.075.15.175.3.3.425a2.048 2.048 0 0 0 2.475.425c1-.525 1.375-1.775.85-2.775zm-1.325 1.875c-.5.275-1.125.075-1.4-.425-.275-.5-.075-1.125.425-1.4.5-.275 1.125-.075 1.4.425.275.5.075 1.125-.425 1.4zM40.6 88.225 28.85 93.95c-.025-.225-.05-.425-.075-.6v-.2c0-.1 0-.175-.025-.275l11.4-5.55.475.9H40.6z"/>
                            <path d="M43.525 86.075c-.525-1-1.775-1.375-2.775-.85-.825.45-1.25 1.4-1.025 2.275.05.175.1.35.175.5a2.02 2.02 0 0 0 2.75.85c1-.525 1.375-1.775.85-2.775h.025zM42.2 87.95c-.5.275-1.125.075-1.4-.425-.275-.5-.075-1.125.425-1.4.5-.275 1.125-.075 1.4.425.275.5.075 1.125-.425 1.4zM46.375 47.375l-.9.475-3.55-6.625c.2-.225.375-.45.575-.675h.025s.05-.075.075-.1l3.775 6.925z"/>
                            <path d="M48.45 48c-.45-.85-1.4-1.25-2.3-1.025-.175.025-.325.1-.475.175-.15.075-.3.175-.425.3a2.048 2.048 0 0 0-.425 2.475c.525 1 1.775 1.375 2.775.85S48.975 49 48.45 48zm-1.325 1.875c-.5.275-1.125.075-1.4-.425-.275-.5-.075-1.125.425-1.4.5-.275 1.125-.075 1.4.425.275.5.075 1.125-.425 1.4z"/>
                        </g>
                        <circle fill="#82B1FF" fill-rule="nonzero" cx="59.275" cy="72.625" r="1"/>
                        <path d="m71.125 73.825-1.1-.55a6.25 6.25 0 0 0-.075-5.65c-.925-1.75-2.675-2.95-4.65-3.225l.15-1.225c2.375.3 4.45 1.75 5.575 3.85s1.175 4.65.1 6.775v.025zM67.975 77.075c-3.6 1.925-8.1.55-10.025-3.05-1.925-3.6-.55-8.1 3.05-10.025.775-.425 1.625-.675 2.475-.8l.175 1.225c-.725.1-1.425.325-2.075.675-3 1.6-4.15 5.35-2.525 8.35 1.625 3 5.35 4.15 8.35 2.525.65-.35 1.225-.8 1.7-1.35l.925.825a7.645 7.645 0 0 1-2.05 1.625z" fill="#2979FF" fill-rule="nonzero"/>
                        <path d="M110.45 82.225c-1.225.875-2.525 1.725-4.075 2.05-.75.15-1.55.225-2.325.175-.8-.075-1.575-.225-2.325-.7l.6-.35v.05c.175 1.675-.7 3.2-1.8 4.25-1.125 1.075-2.425 1.85-3.825 2.45 1.325-.7 2.575-1.6 3.55-2.7.975-1.1 1.6-2.525 1.35-3.9v-.05c0-.2.15-.375.35-.4.1 0 .175 0 .25.075.5.375 1.25.625 1.95.725.725.1 1.475.1 2.2 0 1.475-.175 2.85-.925 4.15-1.7l-.05.025z" fill="#38385C" fill-rule="nonzero"/>
                        <path stroke="#38385C" stroke-width=".75" stroke-linecap="round" stroke-linejoin="round" d="m101.95 83.45-2.425-4.15"/>
                    </g>
                    <path d="M269.05 59.9v.25c0 .8-.05 1.6-.15 2.425 0 .125 0 .225-.025.35 0 .1 0 .225-.05.35-.05.475-.125.95-.225 1.45 0 .1-.025.2-.05.3-.075.45-.175.875-.275 1.325-.025.15-.075.3-.1.425-.05.175-.075.35-.125.5-.05.15-.075.3-.125.475-.05.15-.075.325-.125.475-.1.325-.175.625-.275.95-.05.15-.1.325-.15.475-.1.325-.2.65-.325.975-1.175 3.4-2.825 6.9-4.975 10.475-.475.775-.95 1.575-1.475 2.35-.575-17.35-8.65-30.25-19.25-39.725-4.35-3.9-9.125-7.225-14-10.05-3.15-1.825-6.35-3.45-9.475-4.875-5.275-2.4-10.4-4.275-14.9-5.7.925-.175 1.825-.35 2.75-.475 3.125-.45 6.25-.625 9.325-.525.4 0 .775.025 1.175.05.3 0 .6.025.925.05.375.025.775.05 1.15.1.225 0 .45.05.7.075.475.05.925.1 1.4.175 3.275-7 8.875-15.275 18.35-21.925 0 0 13.075 14.975 17.075 38.125.125.1.25.225.375.325.375.3.725.625 1.075.925a80.262 80.262 0 0 1 6.125 5.875l.95 1.025c.625.675 1.175 1.4 1.675 2.15.15.225.275.425.4.65l.375.675c.3.575.575 1.15.8 1.75.05.1.1.225.125.325.025.075.05.15.1.25.025.075.05.175.1.25.075.2.125.375.2.575 0 .05.025.125.05.175.025.1.05.175.075.275l.075.3c.075.25.125.5.175.75l.05.225c.05.2.075.425.125.625 0 .1.025.2.05.3 0 .1.025.2.05.3.05.3.1.625.125.925 0 .1 0 .2.025.325.075.725.1 1.475.1 2.25l.025-.075z" fill="url(#z9pvriqboi)" fill-rule="nonzero"/>
                    <path d="M173.15 185.125s-.05.25-.075.35c0 .1-.05.2-.075.275-.7 2.675-3.025 3.975-4.225 3.5-1.4-.575-1.5-2-1.5-2h-.025s-.45.125-.875.05c-.5-.075-1.15-.35-1.75-1.075 0 0-.025-.05-.05-.075 0-.025-.05-.075-.075-.1 0 0-.025-.05-.05-.075-.05-.05-.075-.125-.1-.175.75-.45 1.575-.95 2.425-1.475 1.325-.8 2.725-1.675 4.175-2.6 5.175-3.275 10.975-7.125 15.45-10.625 4.825-3.775 7.725-7.35 9.475-10.1a9.784 9.784 0 0 1 1.725 4.45c.65 5.25-9.875 13.625-24.425 19.7l-.025-.025z" fill="url(#110ln9ixqj)" fill-rule="nonzero"/>
                    <g fill-rule="nonzero">
                        <path d="m185.225 119.6.85 7.7s8-5.475 10.175-3.65c3.575 3-2.475 11.45-8.1 16.425-1.05.95-8 5.775-12.075-.875-3.05-4.95-2.95-16.85-2.95-16.85" fill="#FFF"/>
                        <path d="M185.225 119.6c.35 2.55.75 5.1 1.05 7.675l-.3-.125c2.175-1.45 4.425-2.8 6.9-3.7.625-.2 1.275-.375 1.975-.425.65-.075 1.525.2 1.95.775.975 1.125.925 2.7.6 3.95-.7 2.6-2.175 4.825-3.725 6.925-1.575 2.1-3.4 3.975-5.375 5.725-2.1 1.6-4.7 2.775-7.425 2.475-2.8-.325-4.8-2.675-5.725-5.1-1.85-4.95-2-10.25-2-15.425.05 2.6.275 5.175.625 7.75.4 2.55.8 5.125 1.8 7.5.925 2.325 2.85 4.475 5.375 4.725 2.5.25 5-.9 6.95-2.425 1.9-1.7 3.65-3.625 5.25-5.65 1.55-2.025 3.025-4.225 3.7-6.65.325-1.2.325-2.55-.45-3.45-.7-1-2.2-.6-3.35-.25-2.425.825-4.675 2.15-6.85 3.55l-.275.175v-.3c-.3-2.575-.475-5.15-.7-7.725z" fill="#E0E0E0"/>
                    </g>
                    <g fill-rule="nonzero">
                        <path d="M14.675 6.7c-.2.3-1.45 2.175-2.85 4.175-.2.3-.425.6-.625.9-.375.525-.775 1.075-1.125 1.55-.225.325-.475.625-.675.9-.825 1.05-1.5 1.775-1.75 1.75-1.5-.15-5.775-3.85-7.225-8.075v.075s0-.225.05-.275c.725-.425 1.45-.9 2.2-1.4.3-.2.6-.4.925-.625.425-.3.875-.6 1.325-.925.3-.2.6-.4.9-.625C6.6 3.6 7.425 3.025 8.3 2.4c0 0 .05-.025.05-.075C9.1.95 9.85.6 10.575 1.125c.5-.325 1.2-.65 1.6-.775.1-.025.175-.05.275-.075 2.475-.625 5.525 1.5 2.175 6.425h.05z" fill="url(#d957l0snkk)" transform="translate(186.5 118.5)"/>
                        <path d="M198.325 129.375c-.2.3-.425.6-.625.9-2.075-1.25-5.15-3.775-6.25-7.025.3-.2.6-.4.9-.625 1 3.275 3.975 5.625 5.975 6.75zM196.575 131.825c-.225.325-.475.625-.675.9-2.2-1.325-5.65-4.325-6.7-7.925.3-.2.6-.4.925-.625.925 3.725 4.35 6.475 6.45 7.65z" fill="#536D9C"/>
                    </g>
                </g>
                <g fill="#EEE" fill-rule="nonzero">
                    <path d="M295.975 85.525c1.6 0 1.6-2.5 0-2.5s-1.6 2.5 0 2.5zM73.75 150.45c3.225 0 3.225-5 0-5s-3.225 5 0 5zM66.4 81c1.6 0 1.6-2.5 0-2.5s-1.6 2.5 0 2.5zM196.6 22.55c1.6 0 1.6-2.5 0-2.5s-1.6 2.5 0 2.5zM256.45 238.65c3.225 0 3.225-5 0-5s-3.225 5 0 5zM209.525 305.6c1.6 0 1.6-2.5 0-2.5s-1.6 2.5 0 2.5zM130.9 113.775c1.6 0 1.6-2.5 0-2.5s-1.6 2.5 0 2.5zM6 233.775c1.6 0 1.6-2.5 0-2.5s-1.6 2.5 0 2.5zM135.925 66.4c3.225 0 3.225-5 0-5s-3.225 5 0 5zM322.025 7.35c1.6 0 1.6-2.5 0-2.5s-1.6 2.5 0 2.5zM208.55 75.75c1.6 0 1.6-2.5 0-2.5s-1.6 2.5 0 2.5zM4.375 72.325c1.6 0 1.6-2.5 0-2.5s-1.6 2.5 0 2.5zM307.05 181.1c1.6 0 1.6-2.5 0-2.5s-1.6 2.5 0 2.5zM302.375 366.35c3.225 0 3.225-5 0-5s-3.225 5 0 5zM295.975 280.4c1.6 0 1.6-2.5 0-2.5s-1.6 2.5 0 2.5zM219.475 440.625c1.6 0 1.6-2.5 0-2.5s-1.6 2.5 0 2.5zM317.75 449.325c1.6 0 1.6-2.5 0-2.5s-1.6 2.5 0 2.5zM241.925 365.1c1.6 0 1.6-2.5 0-2.5s-1.6 2.5 0 2.5zM104.3 225.625c1.6 0 1.6-2.5 0-2.5s-1.6 2.5 0 2.5zM19.05 159.375c1.6 0 1.6-2.5 0-2.5s-1.6 2.5 0 2.5zM267.725 23.625c1.6 0 1.6-2.5 0-2.5s-1.6 2.5 0 2.5zM80.95 13.35c1.6 0 1.6-2.5 0-2.5s-1.6 2.5 0 2.5zM4.375 8.6c3.225 0 3.225-5 0-5s-3.225 5 0 5z"/>
                </g>
                <path fill="url(#ra97b8gnql)" fill-rule="nonzero" d="M0 0h335v475H0z" transform="translate(-2.5 -4)"/>
            </g>
        </g>
        <path d="M10 418h329.64v46.74c0 6.793-5.507 12.3-12.3 12.3H22.3c-6.793 0-12.3-5.507-12.3-12.3V418z" fill-opacity=".6" fill="#202538"/>
        <text font-family="LacaText-SemiBold, Laca Text" font-size="20" font-weight="500" letter-spacing=".667" fill="#FFF" transform="translate(10 418)">
                        <tspan x="146.83" y="37.76">C-X</tspan>
                    </text>
    </g>
</svg>
