<svg width="187" height="66" viewBox="0 0 187 66" xmlns="http://www.w3.org/2000/svg" xmlns:xlink="http://www.w3.org/1999/xlink">
    <defs>
        <circle id="059i8gwhka" cx="33" cy="33" r="33"/>
        <mask id="u9zpurnuqb" maskContentUnits="userSpaceOnUse" maskUnits="objectBoundingBox" x="0" y="0" width="66" height="66" fill="#fff">
            <use xlink:href="#059i8gwhka"/>
        </mask>
    </defs>
    <g fill="none" fill-rule="evenodd" opacity=".24">
        <path stroke="#FFF" stroke-width="2" stroke-dasharray="6" d="M67 33.5h119.742"/>
        <use stroke="#FFF" mask="url(#u9zpurnuqb)" stroke-width="4" stroke-dasharray="6" xlink:href="#059i8gwhka"/>
        <path d="M15 15h36v36H15z"/>
        <path d="m49.1 44.7-1.7-6c-.3-1.2-1.4-2-2.7-2.1h-4.6l-1.3.6-1.9-4c-.6-1.5-2.4-2.1-3.8-1.5-1.5.6-2.1 2.4-1.5 3.8l3.2 7.3-1.7.3c-.6.1-1.4.5-1.7 1.4l-1.1 2.7 8.7 3.3c.5.2 1.2.2 1.7 0l7-3.1c1.1-.5 1.6-1.6 1.4-2.7zm-9.2 3.8-6.7-2.6.2-.6 4.4-.8-4.2-9.8c-.1-.3 0-.8.3-1 .3-.1.8 0 1 .3l2.7 5.9 2.9-1.3 4.1.1c.3 0 .5.2.6.5l1.7 6-7 3.3zm-6.7-30.3C27 16.9 21 20.8 19.8 27c-1.2 6.1 2.6 12.1 8.7 13.4.2 0 .5.1.8.1l.3 2.7c-.5-.1-1.1-.1-1.6-.2-7.5-1.6-12.4-9.1-10.8-16.5 1.6-7.4 8.9-12.4 16.5-10.9 7.6 1.6 12.3 8.9 10.8 16.6-.1.5-.2 1.1-.4 1.5l-2.3-1.3c0-.2.2-.5.2-.8 1.3-6-2.7-12.1-8.8-13.4m-1 5.1c-3.4-.7-6.6 1.5-7.2 4.8-.6 3 1 6 3.9 7l.2 2.8c-4.6-1-7.7-5.5-6.7-10.4 1-4.6 5.5-7.7 10.4-6.7 4.6 1 7.7 5.5 6.7 10.4L37 29.7c.1-3-1.9-5.8-4.8-6.4" fill="#FFF" fill-rule="nonzero"/>
    </g>
</svg>
