<svg width="350" height="488" viewBox="0 0 350 488" xmlns="http://www.w3.org/2000/svg" xmlns:xlink="http://www.w3.org/1999/xlink">
    <defs>
        <linearGradient x1="72.832%" y1="101.805%" x2="27.168%" y2="-1.805%" id="3pl8qs33kd">
            <stop stop-color="#458AFF" offset="0%"/>
            <stop stop-color="#4B8DFE" offset="12%"/>
            <stop stop-color="#5C97FD" offset="28%"/>
            <stop stop-color="#77A8FA" offset="47%"/>
            <stop stop-color="#9EBEF6" offset="67%"/>
            <stop stop-color="#CEDBF1" offset="88%"/>
            <stop stop-color="#EEE" offset="100%"/>
        </linearGradient>
        <linearGradient x1=".225%" y1="19.533%" x2="79.311%" y2="92.887%" id="7gahjpr7be">
            <stop stop-color="#FF5252" offset="0%"/>
            <stop stop-color="#FF726D" offset="54%"/>
            <stop stop-color="#FF8A80" offset="100%"/>
        </linearGradient>
        <linearGradient x1="47.992%" y1=".142%" x2="52.503%" y2="100.06%" id="9x93acjx9f">
            <stop stop-color="#FF5252" offset="0%"/>
            <stop stop-color="#FF726D" offset="54%"/>
            <stop stop-color="#FF8A80" offset="100%"/>
        </linearGradient>
        <linearGradient x1="50.042%" y1="99.962%" x2="50.042%" y2="0%" id="lynb3iyxeg">
            <stop stop-color="#FF5252" offset="0%"/>
            <stop stop-color="#FF726D" offset="54%"/>
            <stop stop-color="#FF8A80" offset="100%"/>
        </linearGradient>
        <linearGradient x1="95.133%" y1="47.239%" x2=".599%" y2="54.364%" id="r1rhlk5oqh">
            <stop stop-color="#FF5252" offset="0%"/>
            <stop stop-color="#FF726D" offset="54%"/>
            <stop stop-color="#FF8A80" offset="100%"/>
        </linearGradient>
        <linearGradient x1="50%" y1="100%" x2="50%" y2="66.911%" id="y2lnp04hzi">
            <stop stop-opacity=".42" offset="0%"/>
            <stop stop-opacity="0" offset="100%"/>
        </linearGradient>
        <filter x="-4.1%" y="-2.9%" width="108.2%" height="105.8%" filterUnits="objectBoundingBox" id="nx871kvi6a">
            <feOffset dy="2" in="SourceAlpha" result="shadowOffsetOuter1"/>
            <feGaussianBlur stdDeviation="2.5" in="shadowOffsetOuter1" result="shadowBlurOuter1"/>
            <feColorMatrix values="0 0 0 0 0 0 0 0 0 0 0 0 0 0 0 0 0 0 0.24 0" in="shadowBlurOuter1" result="shadowMatrixOuter1"/>
            <feMerge>
                <feMergeNode in="shadowMatrixOuter1"/>
                <feMergeNode in="SourceGraphic"/>
            </feMerge>
        </filter>
        <rect id="jkbku6nkeb" x="0" y="0" width="329.64" height="467.4" rx="12.3"/>
    </defs>
    <g fill="none" fill-rule="evenodd">
        <g filter="url(#nx871kvi6a)" transform="translate(10 10)">
            <mask id="sfulz350dc" fill="#fff">
                <use xlink:href="#jkbku6nkeb"/>
            </mask>
            <use fill="#23293D" xlink:href="#jkbku6nkeb"/>
            <g mask="url(#sfulz350dc)">
                <path fill="url(#3pl8qs33kd)" fill-rule="nonzero" d="M0 0h332.936v472.074H0z" transform="translate(-2.444 -3.28)"/>
                <g fill="#2979FF" fill-rule="nonzero" opacity=".24">
                    <path d="M-3.437 222.794h25.094v246H-3.437zM58.901 222.794h25.094v246H58.901zM121.24 222.794h25.094v246H121.24zM183.554 222.794h25.094v246h-25.094zM245.892 222.794h25.094v246h-25.094zM308.206 222.794h22.287v246h-22.287z"/>
                    <path d="M-2.444 209.054h332.936v27.48H-2.444z"/>
                </g>
                <g fill-rule="nonzero">
                    <path fill="#458AFF" d="M330.493 294.947H21.657l139.808 173.847h169.028z"/>
                    <path fill="#2979FF" d="M21.657 294.947v49.617l93.72 124.23h46.088z"/>
                </g>
                <g transform="translate(14.949 -3.28)">
                    <path d="M280.089 323.271a49.419 49.419 0 0 1-27.33 21.418 34.635 34.635 0 0 1-9.492 1.366 4.97 4.97 0 0 1-2.236-9.367 4.97 4.97 0 0 1 2.236-.522 28.225 28.225 0 0 0 12.622-3.28 40.872 40.872 0 0 0 15.827-14.683c3.379-5.665 4.199-10.982 2.236-14.61-.67-1.217-2.683-4.969-10.386-4.547a25.591 25.591 0 0 0-4.969.796 27.33 27.33 0 0 0-3.404 1.018 4.97 4.97 0 1 1-3.727-9.143 35.53 35.53 0 0 1 7.926-2.162c8.125-1.242 18.262 0 23.33 9.367 3.454 6.684 2.56 15.628-2.633 24.35z" fill="#FFF" fill-rule="nonzero"/>
                    <path d="M280.089 323.271a49.419 49.419 0 0 1-27.33 21.418 34.635 34.635 0 0 1-9.492 1.366 4.97 4.97 0 0 1-2.236-9.367 4.97 4.97 0 0 1 2.236-.522 28.225 28.225 0 0 0 12.622-3.28 40.872 40.872 0 0 0 15.827-14.683c3.379-5.665 4.199-10.982 2.236-14.61-.67-1.217-2.683-4.969-10.386-4.547a25.591 25.591 0 0 0-4.969.796 27.33 27.33 0 0 0-3.404 1.018 4.97 4.97 0 1 1-3.727-9.143 35.53 35.53 0 0 1 7.926-2.162c8.125-1.242 18.262 0 23.33 9.367 3.454 6.684 2.56 15.628-2.633 24.35z" opacity=".15" fill="#2979FF" fill-rule="nonzero"/>
                    <ellipse fill="#000" fill-rule="nonzero" opacity=".15" cx="181.152" cy="376.193" rx="84.998" ry="20.92"/>
                    <path d="M259.367 284.735v3.528a186.618 186.618 0 0 1-1.813 24.449 143.648 143.648 0 0 1-1.864 10.46c-5.367 24.573-17.392 46.04-41.418 56.028a85.694 85.694 0 0 1-33.095 5.913c-64.749 0-78.215-52.177-78.215-100.403 0-20.125 29.815-23.131 78.215-23.131 9.094 0 17.541 0 25.244.422 2.757 0 5.416.249 7.975.422h.174c3.305.224 6.435.473 9.417.82 1.69.174 3.33.373 4.969.597l2.484.397 2.311.398 2.485.497 2.484.571c13.318 3.28 20.647 9.069 20.647 19.032z" fill="#FFF" fill-rule="nonzero"/>
                    <circle fill="#606060" fill-rule="nonzero" cx="151.238" cy="316.439" r="6.708"/>
                    <circle fill="#474747" fill-rule="nonzero" cx="151.238" cy="316.439" r="3.18"/>
                    <circle fill="#EEE" fill-rule="nonzero" cx="154.07" cy="314.128" r="1.863"/>
                    <circle fill="#606060" fill-rule="nonzero" cx="210.346" cy="316.439" r="6.708"/>
                    <circle fill="#474747" fill-rule="nonzero" cx="210.346" cy="316.439" r="3.18"/>
                    <circle fill="#EEE" fill-rule="nonzero" cx="213.179" cy="314.128" r="1.863"/>
                    <path d="M169.425 345.36h23.554s0 12.87-11.777 12.571c-11.777-.298-11.777-12.572-11.777-12.572z" fill="#FF8A80" fill-rule="nonzero"/>
                    <path d="M259.367 284.735v3.528a186.618 186.618 0 0 1-1.813 24.449 143.648 143.648 0 0 1-1.864 10.46c-5.367 24.573-17.392 46.04-41.418 56.028 28.945-18.76 48.648-95.856-11.43-112.08a15.48 15.48 0 0 1 11.48-4.572h.174c3.304.223 6.435.472 9.416.82 1.69.174 3.33.372 4.97.596l2.484.397 2.31.398 2.485.497 2.485.571c13.392 3.156 20.721 8.945 20.721 18.908z" fill="#2979FF" fill-rule="nonzero" opacity=".15"/>
                    <ellipse fill="#37474F" fill-rule="nonzero" cx="180.804" cy="273.704" rx="64.401" ry="6.982"/>
                    <path d="M241.404 194.544a252.088 252.088 0 0 0-22.362 18.486 36.97 36.97 0 0 0-7.453 9.789 11.628 11.628 0 0 0-1.168 4.373 8.72 8.72 0 0 0 .944 3.876 19.38 19.38 0 0 0 2.932 4.124c1.366 1.466 3.13 3.18 4.969 4.97a48.971 48.971 0 0 1 5.342 6.36 19.678 19.678 0 0 1 3.677 9.615 13.467 13.467 0 0 1-.82 5.814 16.075 16.075 0 0 1-2.708 4.522 24.15 24.15 0 0 1-6.982 5.293 44.45 44.45 0 0 1-14.907 4.298c3.801-3.454 7.602-6.634 10.683-9.938a19.057 19.057 0 0 0 3.43-4.97c.59-1.069.663-2.349.198-3.478a27.33 27.33 0 0 0-7.106-7.876c-1.764-1.566-3.677-3.13-5.665-5.218a27.057 27.057 0 0 1-5.441-7.826 20.473 20.473 0 0 1-1.79-10.66 22.187 22.187 0 0 1 3.355-9.49 38.81 38.81 0 0 1 12.125-11.753 69.842 69.842 0 0 1 28.747-10.31zM185.624 272.188a34.784 34.784 0 0 1-19.678-27.33 38.511 38.511 0 0 1 2.659-18.312 50.413 50.413 0 0 1 4.075-8.1l2.012-3.28a102.479 102.479 0 0 0 1.79-3.18 47.655 47.655 0 0 0 6.658-26.61c-.572-9.392-4.547-19.181-8.845-29.343a56.624 56.624 0 0 1 11.876 11.752 46.512 46.512 0 0 1 7.628 15.554 42.238 42.238 0 0 1 .745 18.237 54.388 54.388 0 0 1-6.087 16.845 82.166 82.166 0 0 1-4.522 7.23 59.158 59.158 0 0 0-3.578 5.963 35.38 35.38 0 0 0-3.826 12.82c-.77 8.995 2.733 18.934 9.093 27.754zM160.555 269.182a47.704 47.704 0 0 1-11.23-4.671 44.077 44.077 0 0 1-9.939-7.454 28.399 28.399 0 0 1-4.124-5.367 19.131 19.131 0 0 1-2.485-7.205c-.43-2.86-.06-5.785 1.068-8.448a21.243 21.243 0 0 1 4.373-6.162 41.716 41.716 0 0 0 6.56-7.603 13.516 13.516 0 0 0 1.59-8.224 44.077 44.077 0 0 0-2.485-10.36c-1.192-3.603-2.807-7.156-4.174-11.007a48.5 48.5 0 0 1 8.845 8.348 33.99 33.99 0 0 1 6.286 11.206 20.771 20.771 0 0 1-.795 14.51 37.94 37.94 0 0 1-7.95 10.534 13.119 13.119 0 0 0-2.485 3.156 5.963 5.963 0 0 0-.72 2.981 17.392 17.392 0 0 0 3.13 8.25 137.498 137.498 0 0 0 14.535 17.516z" opacity=".42" fill="#FF5252" fill-rule="nonzero"/>
                    <circle stroke="#4D4D4D" stroke-width="3.255" cx="151.238" cy="316.389" r="20.871"/>
                    <circle stroke="#4D4D4D" stroke-width="3.255" cx="210.371" cy="316.389" r="20.871"/>
                    <path d="M171.437 308.81s7.728-10.161 18.908 0" stroke="#4D4D4D" stroke-width="3.255"/>
                    <g opacity=".77">
                        <path d="M98.564 77.056c21.07 17.541 44.276 26.734 33.691 42.238-10.46 15.901-57.146 34.586-87.756 21.79C-3.926 124.959-10.162 46.918 13.89 25.4c22.809-20.796 50.71 28.92 84.675 51.655z" fill="url(#7gahjpr7be)" fill-rule="nonzero" transform="translate(0 58.802)"/>
                        <path d="M111.807 177.699C61.37 171.885 25.169 128.976 5.715 59.357" stroke="#FF5252" stroke-width="3.379" stroke-linecap="round" stroke-linejoin="round"/>
                        <path d="M90.564 172.754a771.793 771.793 0 0 1-3.603 17.542M86.613 171.239a787.064 787.064 0 0 0 19.653-11.33M72.053 163.835a1006.483 1006.483 0 0 1-4.248 22.212M67.78 160.952a661.894 661.894 0 0 0 25.542-10.336M55.034 150.542a1787.81 1787.81 0 0 1-5.441 34.586M49.419 144.877a383.93 383.93 0 0 0 35.157-7.777M37.095 129.522a2159.466 2159.466 0 0 1-7.454 39.63M32.648 122.764c12.025 0 23.901-.596 35.505-1.74M22.734 104.8a2286.166 2286.166 0 0 1-9.193 40.226" stroke="#FF5252" stroke-width="3.379" stroke-linecap="round" stroke-linejoin="round"/>
                    </g>
                    <g opacity=".24">
                        <path d="M13.086 18.179c-.572 4.97-2.659 10.212-4.97 10.41-2.31.2-5.391-4.571-6.832-9.391C-.828 11.868.687 4.14 5.88 3.694c5.193-.447 8.2 6.882 7.206 14.485z" fill="url(#9x93acjx9f)" fill-rule="nonzero" transform="translate(177.235 20.705)"/>
                        <path stroke="#FF5252" stroke-width=".522" stroke-linecap="round" stroke-linejoin="round" d="m185.004 46.064-2.162-24.746M184.68 42.412l-2.36 1.665M184.63 41.716l2.684 1.292M184.382 38.983l-2.758 2.112M184.308 38.114l3.453 1.938M184.084 35.455l-3.801 3.354M183.96 34.188l4.82 3.056M183.712 31.231l-4.026 3.628M183.612 30.064l5.118 3.354M183.364 27.256l-3.876 3.454"/>
                    </g>
                    <g opacity=".55" fill-rule="nonzero">
                        <path d="M43.066 0v46.512C30.643 59.606 16.108 68.873 8.282 65.047-1.333 60.4-1.656 35.232 3.81 13.317A108.353 108.353 0 0 1 8.282 0h34.784z" fill="url(#lynb3iyxeg)" transform="translate(272.478)"/>
                        <path d="M311.022 0h2.485l-25.293 52.5a1.168 1.168 0 0 1-1.069.67 1.143 1.143 0 0 1-.497 0 1.143 1.143 0 0 1-.546-1.565L311.022 0z" fill="#FF5252"/>
                        <path d="M281.43 39.306a1.168 1.168 0 0 1-1.167-1.093 1.143 1.143 0 0 1 1.093-1.242l12.87-.944a1.143 1.143 0 0 1 1.267 1.093 1.193 1.193 0 0 1-1.093 1.267l-12.87.92h-.1zM303.121 46.686a1.168 1.168 0 0 1-.969-.547l-7.454-11.18a1.217 1.217 0 0 1 .323-1.64 1.193 1.193 0 0 1 1.64.347l7.454 11.181a1.168 1.168 0 0 1-.323 1.64c-.2.129-.433.198-.67.199zM285.729 26.262a1.242 1.242 0 0 1 0-2.484l15.454-1.814a1.217 1.217 0 0 1 1.317 1.019 1.193 1.193 0 0 1-1.043 1.316l-15.455 1.839-.273.124zM311.668 36.325a1.193 1.193 0 0 1-1.043-.572l-8.895-15.429a1.193 1.193 0 0 1 2.062-1.168l8.895 15.405c.318.57.119 1.29-.447 1.615-.174.099-.372.15-.572.149zM285.729 14.336a1.172 1.172 0 0 1-.199-2.335l22.362-4.249a1.193 1.193 0 0 1 .422 2.335l-22.361 4.224-.224.025zM315.544 11.355v5.242l-6.137-12.224a1.143 1.143 0 0 1 .522-1.565 1.168 1.168 0 0 1 1.59.521l4.025 8.026z" fill="#FF5252"/>
                    </g>
                    <g opacity=".77">
                        <path d="M58.554 43.895c-22.908.72-50.289-3.156-56.724-10.51C-4.605 26.03 9.11 14.353 26.502 7.37c26.461-10.584 63.482-9.566 77.62 6.51 14.137 16.075-10.784 28.92-45.568 30.014z" fill="url(#r1rhlk5oqh)" fill-rule="nonzero" transform="translate(179.72 413.272)"/>
                        <path stroke="#FF5252" stroke-width="2.36" stroke-linecap="round" stroke-linejoin="round" d="m194.792 444.147 101.72-19.404M209.774 441.29l-12.646-6.56M212.681 440.743l.771 9.119M223.912 438.607l-15.554-7.578M227.465 437.91l-.224 11.877M238.422 435.824l-23.405-10.212M243.565 434.83l-1.938 16.672M255.74 432.519l-25.02-10.758M260.51 431.6l-2.36 17.839M272.038 429.414l-23.9-10.386"/>
                    </g>
                </g>
                <path fill="url(#y2lnp04hzi)" fill-rule="nonzero" d="M0 0h332.936v472.074H0z" transform="translate(-2.444 -3.28)"/>
            </g>
        </g>
        <path d="M10 418h329.64v46.74c0 6.793-5.507 12.3-12.3 12.3H22.3c-6.793 0-12.3-5.507-12.3-12.3V418z" fill-opacity=".6" fill="#202538"/>
        <text font-family="LacaText-SemiBold, Laca Text" font-size="20" font-weight="500" letter-spacing=".667" fill="#FFF" transform="translate(10 418)">
                        <tspan x="134.94" y="37.76">Java X</tspan>
                    </text>
    </g>
</svg>
