<svg width="350" height="488" viewBox="0 0 350 488" xmlns="http://www.w3.org/2000/svg" xmlns:xlink="http://www.w3.org/1999/xlink">
    <defs>
        <linearGradient x1="72.832%" y1="101.805%" x2="27.168%" y2="-1.805%" id="jdd2qg0u1d">
            <stop stop-color="#6520FF" offset="0%"/>
            <stop stop-color="#6A26F9" offset="12%"/>
            <stop stop-color="#7736E8" offset="26%"/>
            <stop stop-color="#8E50CD" offset="44%"/>
            <stop stop-color="#AD75A6" offset="62%"/>
            <stop stop-color="#D4A476" offset="82%"/>
            <stop stop-color="#FFD741" offset="100%"/>
        </linearGradient>
        <linearGradient x1="96.615%" y1="59.605%" x2="-.939%" y2="39.967%" id="q7jscnqhie">
            <stop stop-color="#FFF" stop-opacity=".6" offset="0%"/>
            <stop stop-color="#FFF" stop-opacity=".14" offset="78%"/>
            <stop stop-color="#FFF" stop-opacity="0" offset="100%"/>
        </linearGradient>
        <linearGradient x1="8.441%" y1="42.263%" x2="91.045%" y2="58.081%" id="cpdjn4whbf">
            <stop stop-color="#FFF" stop-opacity="0" offset="0%"/>
            <stop stop-color="#FFF" stop-opacity=".13" offset="42%"/>
            <stop stop-color="#FFF" stop-opacity=".21" offset="77%"/>
            <stop stop-color="#FFF" stop-opacity=".24" offset="100%"/>
        </linearGradient>
        <linearGradient x1="-27.778%" y1="40.32%" x2="56.863%" y2="40.32%" id="rq9e7r4ofg">
            <stop stop-color="#FFF" stop-opacity="0" offset="0%"/>
            <stop stop-color="#FFF" stop-opacity=".13" offset="42%"/>
            <stop stop-color="#FFF" stop-opacity=".21" offset="77%"/>
            <stop stop-color="#FFF" stop-opacity=".24" offset="100%"/>
        </linearGradient>
        <linearGradient x1="-29.768%" y1="80.125%" x2="57.345%" y2="80.125%" id="5u4d2znu0h">
            <stop stop-color="#FFF" stop-opacity="0" offset="0%"/>
            <stop stop-color="#FFF" stop-opacity=".13" offset="42%"/>
            <stop stop-color="#FFF" stop-opacity=".21" offset="77%"/>
            <stop stop-color="#FFF" stop-opacity=".24" offset="100%"/>
        </linearGradient>
        <linearGradient x1="-31.699%" y1="82.109%" x2="52.941%" y2="82.109%" id="z8m9e54e5i">
            <stop stop-color="#FFF" stop-opacity="0" offset="0%"/>
            <stop stop-color="#FFF" stop-opacity=".13" offset="42%"/>
            <stop stop-color="#FFF" stop-opacity=".21" offset="77%"/>
            <stop stop-color="#FFF" stop-opacity=".24" offset="100%"/>
        </linearGradient>
        <linearGradient x1="50%" y1="100%" x2="50%" y2="66.911%" id="sc4t8tidjk">
            <stop stop-opacity=".42" offset="0%"/>
            <stop stop-opacity="0" offset="100%"/>
        </linearGradient>
        <radialGradient cx="50%" cy="50%" fx="50%" fy="50%" r="50%" id="d7oi0zjphj">
            <stop stop-color="#FFC400" stop-opacity=".55" offset="0%"/>
            <stop stop-color="#FFC400" stop-opacity=".46" offset="21%"/>
            <stop stop-color="#FFC400" stop-opacity=".22" offset="64%"/>
            <stop stop-color="#FFC400" stop-opacity="0" offset="100%"/>
        </radialGradient>
        <filter x="-4.1%" y="-2.9%" width="108.2%" height="105.8%" filterUnits="objectBoundingBox" id="bczna1cywa">
            <feOffset dy="2" in="SourceAlpha" result="shadowOffsetOuter1"/>
            <feGaussianBlur stdDeviation="2.5" in="shadowOffsetOuter1" result="shadowBlurOuter1"/>
            <feColorMatrix values="0 0 0 0 0 0 0 0 0 0 0 0 0 0 0 0 0 0 0.24 0" in="shadowBlurOuter1" result="shadowMatrixOuter1"/>
            <feMerge>
                <feMergeNode in="shadowMatrixOuter1"/>
                <feMergeNode in="SourceGraphic"/>
            </feMerge>
        </filter>
        <rect id="xjcsb1o4hb" x="0" y="0" width="329.64" height="467.4" rx="12.3"/>
    </defs>
    <g fill="none" fill-rule="evenodd">
        <g filter="url(#bczna1cywa)" transform="translate(10 10)">
            <mask id="idllbqp42c" fill="#fff">
                <use xlink:href="#xjcsb1o4hb"/>
            </mask>
            <use fill="#23293D" xlink:href="#xjcsb1o4hb"/>
            <g mask="url(#idllbqp42c)">
                <path fill="url(#jdd2qg0u1d)" fill-rule="nonzero" d="M0 0h329.64v467.4H0z"/>
                <g transform="translate(0 -1.64)">
                    <g opacity=".42" fill-rule="nonzero">
                        <path fill="#455A65" d="m269.1 1.64-45.953 467.4H329.64V1.64z"/>
                        <path d="M96.481 1.64h2.46c-.812.467-1.451.689-1.746.467l-.714-.467z" fill="#37474F"/>
                        <path d="m281.178 55.145-9.57 43.222-116.382-25.756a136.85 136.85 0 0 1-30.602-10.676c-1.452-1.845-6.74-4.92-6.396-6.249.344-1.328-1.747-3.149-1.476-4.772.27-1.624 12.84-1.5 12.988-3.124.148-1.624-7.872-3.69-7.872-5.339 0-1.648 7.134-3.64 7.011-5.24-.123-1.598-.738-3.566-1.008-5.165-.27-1.6-9.225-1.255-9.643-2.83-.419-1.574 6.076-5.215 5.51-6.74-.566-1.525-7.208-.467-7.897-1.919-.688-1.451 0-3.394-.738-4.797-.738-1.402-4.034-.86-4.92-2.214-.885-1.353 4.797-7.626 3.74-8.856-1.058-1.23-5.191.246-6.323-.91-.442-.393-.442-1.18-.344-2.14h8.143a138.596 138.596 0 0 0 28.265 18.819 138.03 138.03 0 0 0 31.98 11.34l105.534 23.346z" fill="#455A65"/>
                        <path fill="#455A65" d="m163.682 1.82 44.279-.363.453 55.176-44.279.364z"/>
                        <path d="M329.64 1.64v115.226c-1.82-2.017-3.64-4.01-4.65-3.739-2.066.566-4.92-3.1-6.937-2.73-2.017.369-3.96-.96-6.1-.763-2.14.197-3.715 17.22-5.904 17.22-2.19 0-4.92-2.608-7.11-2.804-2.19-.197-4.133-5.412-6.248-5.781-2.116-.37-2.682-7.602-4.748-8.168-2.066-.565-5.707 4.133-7.724 3.395-2.018-.738-1.329-7.65-3.272-8.56-1.944-.91-7.036 4.452-8.88 3.37-1.846-1.083 2.705-11.66.934-12.89-1.771-1.23-12.718 9.84-14.366 8.363-1.649-1.476-6.003-.812-7.528-2.46-1.525-1.648-2.214-4.797-3.616-6.445-1.402-1.648 6.986-10.972 5.756-12.718-1.23-1.747-3.665-2.46-4.748-4.231-1.082-1.772 3.026-5.88 2.116-7.823-.91-1.944-14.957 1.673-15.695-.37-.738-2.041-2.903-4.132-3.468-6.223-.566-2.091 13.948-7.38 13.554-9.57-.393-2.189-14.366-2.46-14.563-4.526-.197-2.066 9.717-4.772 9.717-6.962 0-2.189 4.379-3.591 4.576-5.731.168-1.9.44-3.788.811-5.658.37-2.14-12.3-7.011-11.832-9.078.467-2.066 12.3-.566 13.136-2.46.837-1.894-10.504-9.003-9.594-10.947.91-1.943 1.452-4.772 2.46-6.642v-.172l93.923-.123z" fill="#37474F"/>
                    </g>
                    <g opacity=".77" fill-rule="nonzero">
                        <path fill="#455A65" d="m37.294 1.64 34.341 467.4H0V1.64z"/>
                        <path d="M116.752 50.84c-.271 1.624 1.894 3.223 1.476 4.772-.419 1.55 7.38 5.683 6.74 7.208-.64 1.525-2.977 2.46-3.665 4.035-.69 1.574-7.38-.296-8.118 1.107-.738 1.402-2.14 1.992-3.05 3.32-.911 1.329 3.714 6.741 2.656 7.971-1.058 1.23.148 4.92-.984 6.076-1.132 1.156-2.46 2.854-3.64 3.887-1.182 1.033-6.2-2.46-7.528-1.427-1.329 1.033.688 7.577-.714 8.389-1.402.812-5.067-1.82-6.445-1.058-1.378.763-1.427 6.1-2.952 6.667-1.525.565-5.683-6.298-7.257-5.855-1.574.443-3.64-2.46-5.264-2.067-1.624.394-2.977-.738-4.6-.59-1.624.148-2.903 12.915-4.527 12.915s-3.788-1.993-5.387-2.14c-1.6-.148-3.15-4.01-4.724-4.379-1.574-.369-2.041-5.732-3.591-6.15-1.55-.418-4.33 3.124-5.855 2.46-1.525-.664-.984-5.781-2.46-6.47-1.476-.689-5.314 3.37-6.716 2.46-1.402-.91 2.067-8.807.714-9.84-1.353-1.033-9.594 7.38-10.849 6.322-1.255-1.057-4.526-.615-5.683-1.77-1.156-1.157-1.672-3.617-2.73-4.92-1.058-1.305 5.289-8.266 4.354-9.62-.935-1.352-2.78-1.77-3.616-3.173-.837-1.402 2.312-4.452 1.623-5.928-.688-1.476-11.316 1.254-11.857-.271-.541-1.525-2.263-2.829-2.632-4.403C9.102 56.793 20 52.734 19.68 51.135c-.32-1.599-10.873-1.796-11.02-3.42-.148-1.623 7.38-3.615 7.38-5.264 0-1.648 3.296-2.73 3.443-4.33.148-1.598.345-2.68.615-4.28.27-1.599-9.348-5.289-8.93-6.863.419-1.574 9.348-.418 9.84-1.943.492-1.526-7.896-6.79-7.207-8.266.688-1.476 1.082-3.616 1.894-4.92.812-1.304 2.09-3.075 3.026-4.403.934-1.329 11.242 4.6 12.3 3.345 1.057-1.254-3.395-6.863-3.813-9.151h3.32c2.313 1.132 5.117 2.78 5.88 2.14.763-.64.492-1.156.295-2.14h59.778l.615.467c.295.222.935 0 1.747-.467h8.413c0 .96 0 1.747.295 2.14 1.132 1.156 5.29-.344 6.322.91 1.034 1.255-4.674 7.528-3.739 8.856.935 1.329 4.158.812 4.92 2.214.763 1.403 0 3.321.738 4.92.738 1.6 7.38.394 7.897 1.92.516 1.524-5.953 5.165-5.51 6.74.442 1.574 9.347 1.23 9.643 2.829.295 1.599.86 3.542 1.008 5.166.148 1.623-7.01 3.591-7.01 5.24 0 1.648 7.994 3.714 7.871 5.338-.123 1.623-12.644 1.402-12.94 2.927z" fill="#37474F"/>
                        <path d="M162.532 136.94c0 2.19 10.603 4.92 10.406 7.06-.197 2.14-16.802 2.042-17.22 4.133-.418 2.091 2.46 4.256 1.968 6.347-.492 2.09 9.619 7.38 8.905 9.495-.713 2.116-3.96 3.395-4.92 5.339-.96 1.943-9.668-.345-10.75 1.5-1.082 1.845-2.829 2.608-4.059 4.379-1.23 1.771 4.92 8.93 3.542 10.578-1.377 1.648.197 6.494-1.328 8.02-1.525 1.525-3.149 3.788-4.797 5.166-1.648 1.377-8.192-3.15-9.963-1.92-1.771 1.23.984 10.087-.836 11.243-1.82 1.156-6.692-2.46-8.66-1.574-1.968.885-1.82 7.97-3.911 8.708-2.091.738-7.528-8.29-9.619-7.749-2.09.541-4.92-3.1-6.937-2.73-2.017.368-3.936-.96-6.1-.763-2.165.197-3.715 17.22-5.88 17.22s-4.92-2.608-7.134-2.805c-2.214-.196-4.059-5.387-6.224-5.83-2.165-.443-2.755-7.601-4.772-8.167-2.017-.566-5.707 4.133-7.823 3.395-2.116-.738-1.328-7.65-3.272-8.561-1.943-.91-7.01 4.453-8.88 3.37-1.87-1.082 2.706-11.636.959-12.89-1.747-1.255-12.743 9.84-14.391 8.364-1.648-1.476-5.978-.812-7.503-2.46-1.525-1.648-2.239-4.92-3.616-6.445-1.378-1.526 6.986-10.947 5.732-12.719-1.255-1.77-3.666-2.46-4.748-4.23-1.083-1.772 3.05-5.88 2.115-7.824-.934-1.943-14.858 1.87-15.596-.246-.738-2.115-2.903-4.206-3.469-6.297-.565-2.091 13.949-7.38 13.58-9.57-.37-2.189-14.391-2.46-14.588-4.526-.197-2.066 9.618-4.772 9.618-7.011s4.38-3.592 4.576-5.732c.169-1.899.44-3.788.812-5.658.369-2.14-12.3-7.01-11.833-9.077.468-2.067 12.3-.566 13.137-2.46.836-1.894-10.48-9.053-9.57-11.021.91-1.968 1.427-4.772 2.46-6.642s2.78-4.084 4.01-5.83c1.23-1.747 14.883 6.1 16.26 4.452 1.378-1.648-6.445-11.488-4.92-13.013 1.526-1.525 10.406 5.215 12.055 3.838 1.648-1.378-1.6-8.684.172-9.84 1.771-1.157 7.232 3.813 9.102 2.73 1.87-1.082 1.722-5.092 3.665-6.002 1.944-.91.96-9.127 3.001-9.84 2.042-.714 3.986-3.42 6.077-3.985 2.09-.566 4.33-3.518 6.47-3.887 2.14-.37 5.215 1.107 7.38.91 2.164-.197 4.92 12.57 7.109 12.57 2.19 0 4.92-10.848 6.912-10.676 1.993.172 4.92.37 6.938.738 2.017.37 4.92.172 7.01.714 2.092.54 5.806-1.649 7.799-.935 1.992.713 3.37 5.043 5.313 5.953 1.944.91-2.878 14.76-1.033 15.744 1.845.984 2.682 2.46 4.428 3.69 1.747 1.23 11.882-8.635 13.53-7.38 1.648 1.255-1.23 7.946.295 9.471 1.526 1.525 7.011-.467 8.389 1.18 1.378 1.649-6.175 9.988-4.92 11.76 1.255 1.77 5.486 1.057 6.568 2.927 1.083 1.87 0 4.379.984 6.322.984 1.944 9.84.541 10.455 2.46.615 1.919-7.872 6.839-7.38 8.93.492 2.091 12.3 1.624 12.768 3.764.467 2.14 1.131 4.65 1.328 6.814.197 2.165-9.176 4.895-9.176 7.011z" fill="#37474F"/>
                        <path d="M56.088 131.159c-.369 2.14 2.46 4.256 1.943 6.322-.516 2.067 9.644 7.503 8.906 9.52-.738 2.018-3.936 3.395-4.92 5.339-.984 1.943-9.668-.37-10.726 1.5-1.058 1.87-2.829 2.608-4.059 4.379-1.23 1.771 4.92 8.905 3.542 10.553-1.377 1.649.197 6.52-1.328 8.045-1.525 1.525-3.173 3.763-4.92 5.166-1.747 1.402-8.192-3.15-9.84-1.92-1.648 1.23.91 10.038-.96 11.12-1.869 1.082-6.666-2.583-8.585-1.599-1.919.984-1.894 8.069-3.911 8.856-2.017.787-7.528-8.29-9.619-7.749-2.09.541-4.92-3.1-6.937-2.73A13.825 13.825 0 0 1 0 187.221V40.68c2.091.197 4.551.37 6.519.714s4.92.172 7.011.713c2.091.541 5.806-1.673 7.823-.935 2.017.738 3.345 5.043 5.289 5.953 1.943.91-2.878 14.76-1.009 15.744 1.87.984 2.682 2.46 4.428 3.69 1.747 1.23 11.882-8.634 13.53-7.257 1.648 1.378-1.23 7.946.295 9.471 1.526 1.526 7.011-.467 8.389 1.181 1.378 1.648-6.175 9.988-4.92 11.759 1.255 1.771 5.486 1.058 6.544 2.927 1.057 1.87 0 4.38 1.008 6.323 1.009 1.943 9.84.516 10.455 2.46.615 1.943-7.872 6.838-7.38 8.93.492 2.09 12.423 1.623 12.792 3.739.37 2.115 1.132 4.674 1.329 6.838.196 2.165-9.275 4.773-9.275 6.938 0 2.164 10.578 4.92 10.406 7.035-.172 2.116-16.654 2.165-17.146 4.256z" fill="#37474F"/>
                        <path d="M48.733 6.56c-.394 2.14 2.46 4.256 1.943 6.322-.517 2.067 9.643 7.503 8.905 9.52-.738 2.018-3.936 3.395-4.92 5.339-.984 1.943-9.668-.345-10.75 1.5-1.082 1.845-2.73 2.682-3.985 4.379-1.255 1.697 4.92 8.93 3.542 10.553-1.377 1.624.197 6.52-1.304 8.045-1.5 1.525-3.173 3.763-4.92 5.166-1.746 1.402-8.191-3.15-9.84-1.92-1.648 1.23.91 10.038-.959 11.12-1.87 1.082-6.691-2.46-8.635-1.574-1.943.885-1.894 8.044-3.936 8.782-2.041.738-7.38-8.29-9.594-7.75-1.254.345-2.78-.885-4.255-1.82V1.64H65.46c.26.211.413.526.418.861-.172 2.14-16.679 2.042-17.146 4.059zM170.995 385.203c0 2.19 10.578 4.92 10.38 7.06-.196 2.14-16.801 2.042-17.22 4.158-.417 2.115 2.46 4.256 1.969 6.322-.492 2.066 9.618 7.38 8.905 9.496-.713 2.115-3.936 3.419-4.92 5.362-.984 1.944-9.668-.369-10.75 1.476-1.083 1.845-2.83 2.633-4.06 4.38-1.23 1.746 4.92 8.929 3.543 10.577-1.377 1.648.197 6.52-1.328 8.02-1.525 1.5-3.149 3.788-4.797 5.166-1.648 1.377-8.192-3.149-9.963-1.919-1.771 1.23.91 10.037-.96 11.12-1.87 1.082-6.69-2.46-8.659-1.575-1.968.885-1.87 8.044-3.911 8.807-2.042.762-7.38-8.315-9.594-7.75-2.214.566-4.92-3.124-6.962-2.73-2.042.394-3.936-.984-6.1-.787-2.166.197-3.715 17.22-5.88 17.22s-4.92-2.632-7.134-2.83c-2.214-.196-4.133-5.411-6.224-5.78-2.091-.37-2.706-7.602-4.772-8.167-2.067-.566-5.708 4.132-7.725 3.394-2.017-.738-1.328-7.65-3.272-8.56-1.943-.91-7.01 4.452-8.88 3.37-1.87-1.083 2.706-11.636.96-12.89-1.747-1.255-12.744 9.84-14.367 8.363-1.624-1.476-6.003-.811-7.528-2.46-1.525-1.648-2.238-4.797-3.616-6.445-1.378-1.648 6.986-10.947 5.732-12.718-1.255-1.771-3.666-2.46-4.748-4.231-1.082-1.771 3.05-5.88 2.14-7.823-.91-1.943-14.981 1.673-15.72-.369-.737-2.042-2.902-4.207-3.443-6.298-.541-2.09 13.923-7.38 13.554-9.569-.369-2.19-14.39-2.46-14.587-4.526-.197-2.067 9.618-4.773 9.618-6.962 0-2.19 4.379-3.592 4.576-5.732.197-2.14.443-3.567.812-5.658.369-2.091-12.3-7.011-11.833-9.077.467-2.067 12.3-.542 13.136-2.46.837-1.92-10.48-9.004-9.569-10.947.91-1.944 1.427-4.92 2.46-6.642 1.033-1.722 2.952-4.084 4.182-5.929 1.23-1.845 14.883 6.1 16.26 4.453 1.378-1.649-6.445-11.464-4.92-12.99 1.526-1.524 10.406 5.191 12.055 3.814 1.648-1.378-1.575-8.66.172-9.84 1.746-1.181 7.232 3.813 9.102 2.755 1.87-1.058 1.722-5.092 3.665-6.027 1.944-.935.96-9.127 3.001-9.84 2.042-.713 3.986-3.42 6.077-3.985 2.09-.566 4.33-3.518 6.47-3.887 2.14-.369 5.215 1.107 7.38.935 2.164-.172 4.92 12.546 7.109 12.546 2.19 0 4.92-10.849 6.937-10.677 2.017.173 4.92.394 6.913.763 1.992.369 4.92.148 7.01.689 2.092.541 5.806-1.648 7.823-.91 2.018.738 3.346 4.92 5.29 5.953 1.943 1.033-2.879 14.76-1.034 15.744a52.226 52.226 0 0 1 4.428 3.665c1.771 1.255 11.882-8.634 13.53-7.232 1.648 1.402-1.23 7.921.295 9.446 1.526 1.525 7.011-.443 8.389 1.206 1.378 1.648-6.175 9.987-4.92 11.734 1.255 1.746 5.486 1.058 6.568 2.927 1.083 1.87 0 4.379.984 6.347.984 1.968 9.717.517 10.455 2.46.738 1.943-7.872 6.863-7.38 8.954s12.3 1.6 12.768 3.74c.467 2.14 1.131 4.649 1.328 6.814.197 2.165-9.2 4.723-9.2 6.986z" fill="#37474F"/>
                        <path d="M177.809 464.587c0 1.378-3.69 2.928-6.47 4.453H30.11c1.255-1.033 2.706-2.017 2.83-3.223.17-1.907.44-3.804.811-5.682.37-2.14-12.3-7.011-11.832-9.078.467-2.066 12.3-.54 13.136-2.46.836-1.918-10.455-9.077-9.594-11.045.861-1.968 1.451-4.797 2.46-6.642 1.009-1.845 2.755-4.084 3.985-5.855 1.23-1.771 14.883 6.101 16.285 4.453 1.403-1.648-6.445-11.464-4.92-12.989 1.526-1.525 10.406 5.19 12.054 3.813 1.649-1.378-1.599-8.66.173-9.84 1.77-1.18 7.232 3.838 9.102 2.755 1.87-1.082 1.722-5.092 3.665-6.002.284-.163.509-.413.64-.714 1.107-2.238.59-8.536 2.46-9.175 1.87-.64 3.96-3.42 6.051-3.961 2.091-.541 4.354-3.542 6.495-3.911 2.14-.37 5.215 1.107 7.38.934 2.164-.172 4.92 12.546 7.084 12.546 2.165 0 4.92-10.848 6.938-10.651 2.017.196 4.92.369 6.912.738 1.993.369 4.92.147 7.011.713s5.806-1.673 7.823-.935c2.017.738 3.346 4.92 5.289 5.953 1.943 1.034-2.878 14.76-1.009 15.744 1.87.984 2.682 2.46 4.428 3.69 1.747 1.23 11.882-8.634 13.53-7.257 1.649 1.378-1.23 7.922.296 9.447 1.525 1.525 7.01-.443 8.388 1.205 1.378 1.648-6.174 9.988-4.92 11.759 1.255 1.771 5.461 1.058 6.544 2.903 1.082 1.845 0 4.379 1.008 6.347 1.009 1.968 9.84.516 10.455 2.46.615 1.943-7.872 6.838-7.38 8.93.492 2.09 12.3 1.598 12.792 3.739.492 2.14 1.132 4.674 1.329 6.838z" fill="#37474F"/>
                        <path d="M223.688 405.203c0 1.353 6.642 3.075 6.543 4.428-.098 1.353-10.553 1.28-10.799 2.608-.246 1.328 1.574 2.681 1.23 3.96-.344 1.28 6.052 4.723 5.658 6.101-.394 1.378-2.46 2.14-3.05 3.37-.59 1.23-6.077-.246-6.765.935-.69 1.18-1.772 1.648-2.46 2.755-.69 1.107 3.1 5.584 2.214 6.642-.886 1.058 0 4.084-.812 4.92-.812.837-1.993 2.46-3.026 3.223-1.033.762-5.166-1.968-6.273-1.181-1.107.787.59 6.298-.59 6.962-1.181.664-4.207-1.55-5.437-.984-1.23.566-1.18 5.067-2.46 5.535-1.28.467-4.723-5.215-6.052-4.92-1.328.295-3.025-1.944-4.354-1.722-1.328.221-2.46-.59-3.837-.492-1.378.098-2.46 10.8-3.69 10.8s-3.15-1.649-4.478-1.747c-1.328-.099-2.607-3.42-3.911-3.641-1.304-.222-1.697-4.92-3.001-5.142-1.304-.221-3.592 2.608-4.92 2.14-1.329-.467-.837-4.92-2.067-5.387-1.23-.467-4.403 2.805-5.584 2.14-1.18-.664 1.722-7.38.615-8.118-1.107-.738-7.995 6.126-9.028 5.265-1.033-.861-3.788-.517-4.748-1.476-.96-.96-1.402-3.001-2.263-4.035-.861-1.033 4.403-6.888 3.616-8.02-.787-1.13-2.312-1.475-3.001-2.631-.689-1.157 1.919-3.715 1.353-4.92-.566-1.206-9.397 1.033-9.84-.246-.443-1.28-1.82-2.633-2.19-3.936-.368-1.304 8.758-4.674 8.537-6.027-.222-1.353-9.053-1.476-9.176-2.83-.123-1.352 6.052-3.025 6.052-4.378 0-1.353 2.755-2.263 2.878-3.616.096-1.191.269-2.374.516-3.543.222-1.353-7.798-4.403-7.38-5.707.419-1.304 7.799-.344 8.266-1.624.467-1.279-6.593-5.658-6.027-6.863.566-1.205.91-3.026 1.599-4.182.689-1.156 1.722-2.46 2.46-3.665.738-1.206 9.348 3.813 10.209 2.78.861-1.034-4.133-7.16-3.075-8.094 1.058-.935 6.544 3.272 7.601 2.46 1.058-.812-1.008-5.437 0-6.224 1.009-.787 4.551 2.46 5.708 1.722 1.156-.738 1.082-3.198 2.312-3.764 1.23-.565.615-5.756 1.87-6.223 1.254-.468 2.46-2.14 3.813-2.46 1.353-.32 2.755-2.214 4.083-2.46 1.329-.246 3.272.713 4.625.59 1.353-.123 3.1 7.897 4.477 7.897 1.378 0 3.026-6.84 4.354-6.716 1.329.123 3.026.246 4.33.467 1.304.222 3.124 0 4.428.443 1.304.443 3.64-1.033 4.92-.59 1.28.442 2.116 3.173 3.321 3.763 1.205.59-1.796 9.2-.64 9.84a31.07 31.07 0 0 1 2.805 2.313c1.107.762 7.38-5.437 8.487-4.551 1.107.885-.763 4.92.197 5.928.959 1.009 4.403-.27 5.264.763.861 1.033-3.887 6.273-3.1 7.38.788 1.107 3.42.664 4.109 1.82.688 1.157 0 2.756.615 3.986.615 1.23 6.125.344 6.568 1.599.443 1.254-4.92 4.305-4.576 5.633.345 1.328 7.774 1.009 8.02 2.337.246 1.328.713 2.927.836 4.28.123 1.353-5.88 2.952-5.88 4.33zM95.94 324.54c-.369 2.14 2.46 4.255 1.943 6.322-.516 2.066 9.644 7.38 8.906 9.52-.738 2.14-3.936 3.395-4.92 5.338-.984 1.944-9.668-.344-10.726 1.5-1.058 1.846-2.829 2.608-4.059 4.38-1.23 1.77 4.92 8.93 3.542 10.553-1.377 1.624.197 6.519-1.328 8.044-1.525 1.525-3.173 3.764-4.92 5.166-1.747 1.402-8.192-3.149-9.84-1.919-1.648 1.23.91 10.037-.96 11.12-1.869 1.082-6.69-2.46-8.659-1.575-1.968.886-1.894 8.044-3.911 8.782-2.017.738-7.528-8.29-9.619-7.749-1.254.345-2.73-.86-4.182-1.77a4.256 4.256 0 0 0-2.755-.96c-2.115.369-3.96-.96-6.1-.763-2.14.197-3.715 17.22-5.905 17.22-2.189 0-4.92-2.632-7.109-2.804-2.19-.172-4.133-5.412-6.248-5.781-2.116-.37-2.682-7.602-4.748-8.167-2.067-.566-5.707 4.132-7.725 3.394-2.017-.738-1.328-7.65-3.271-8.56-.763-.345-1.993.246-3.346 1.057V253.372c.713-1.6 1.082-3.764 2.46-4.404 1.943-.91.96-9.15 3.001-9.84 2.042-.688 3.96-3.394 6.052-3.96 2.09-.566 4.354-3.518 6.494-3.912 2.14-.393 5.215 1.132 7.38.935 2.165-.197 4.92 12.57 7.085 12.57s4.92-10.848 6.937-10.676c2.017.173 4.92.37 6.913.738 1.992.37 4.92.173 7.01.714 2.092.541 5.806-1.673 7.824-.935 2.017.738 3.345 4.92 5.289 5.953 1.943 1.033-2.879 14.76-1.009 15.744s2.681 2.46 4.428 3.69c1.747 1.23 11.882-8.634 13.53-7.38 1.648 1.255-1.23 7.946.295 9.471 1.525 1.525 7.011-.467 8.389 1.181 1.377 1.648-6.175 9.988-4.92 11.759 1.254 1.771 5.486 1.058 6.543 2.927 1.058 1.87 0 4.379 1.009 6.322 1.009 1.944 9.84.542 10.455 2.46.615 1.92-7.872 6.84-7.38 8.93.492 2.091 12.3 1.624 12.792 3.74.492 2.115 1.132 4.673 1.328 6.838.197 2.165-9.274 4.773-9.274 6.937 0 2.165 10.578 4.92 10.406 7.06-.172 2.14-16.802 2.215-17.097 4.306z" fill="#37474F"/>
                        <path d="M56.088 432.558c-.369 2.14 2.46 4.256 1.943 6.322-.516 2.067 9.644 7.38 8.906 9.52-.738 2.14-3.936 3.395-4.92 5.339-.984 1.943-9.668-.37-10.726 1.5-1.058 1.87-2.829 2.608-4.059 4.38-1.23 1.77 3.198 6.813 3.69 9.421H0V342.08c2.091.196 4.551.368 6.519.713 1.968.344 4.92.172 7.011.713 2.091.541 5.806-1.673 7.823-.935 2.017.738 3.345 4.92 5.289 5.954 1.943 1.033-2.878 14.76-1.009 15.744 1.87.984 2.682 2.46 4.428 3.69 1.747 1.23 11.882-8.635 13.53-7.257 1.648 1.377-1.23 7.945.295 9.47 1.526 1.526 7.011-.467 8.389 1.181 1.378 1.649-4.551 8.168-5.068 10.898a1.18 1.18 0 0 0 0 .861c1.23 1.747 5.486 1.058 6.544 2.928 1.058 1.87 0 4.378 1.009 6.322 1.008 1.943 9.84.516 10.455 2.46.615 1.943-7.872 6.839-7.38 8.93.442 1.599 7.552 1.697 10.971 2.607 1.033.295 1.722.64 1.82 1.132.37 2.115 1.132 4.674 1.329 6.839.197 2.164-9.274 4.772-9.274 6.937s10.578 4.92 10.406 7.035c-.173 2.116-16.507 2.165-16.999 4.256z" fill="#37474F"/>
                    </g>
                    <path d="M329.64 60.508v178.399a263.737 263.737 0 0 1-41.107 37.441 262.138 262.138 0 0 1-26.74 16.58 292.396 292.396 0 0 1-27.06 12.891l-1.796.738a333.28 333.28 0 0 1-119.654 20.713l-1.476-49.2a301.178 301.178 0 0 0 61.156-10.307 243.54 243.54 0 0 0 28.782-9.84 209.335 209.335 0 0 0 8.659-3.789 218.94 218.94 0 0 0 40.934-26.174 201.99 201.99 0 0 0 32.497-35.301 221.4 221.4 0 0 0 28.585-54.637 282.9 282.9 0 0 0 8.708-28.29 301.373 301.373 0 0 0 1.649-6.765 340.882 340.882 0 0 0 6.863-42.46z" fill="#9DCB6B" fill-rule="nonzero"/>
                    <path d="M261.793 292.929a292.396 292.396 0 0 1-27.06 12.89 15.94 15.94 0 1 1 27.06-12.89zM204.82 267.32c.149 8.831-6.889 16.111-15.72 16.26-8.83.15-16.111-6.888-16.26-15.719a243.54 243.54 0 0 0 28.782-9.84 15.72 15.72 0 0 1 3.198 9.299z" fill="#689F38" fill-rule="nonzero"/>
                    <circle fill="#689F38" fill-rule="nonzero" cx="278.029" cy="231.896" r="15.941"/>
                    <path d="M329.64 182.868v26.716a15.916 15.916 0 0 1 0-26.716zM327.008 122.18c-.003 8.344-6.44 15.274-14.76 15.892a282.9 282.9 0 0 0 8.708-28.29 15.892 15.892 0 0 1 6.052 12.398z" fill="#689F38" fill-rule="nonzero"/>
                    <path d="M191.068 278.464a20.984 20.984 0 0 1-24.6 16.752h-.566c-11.12-2.414-18.298-13.245-16.186-24.427a20.541 20.541 0 0 1 2.755-7.134 21.033 21.033 0 0 1 38.031 4.92 21.205 21.205 0 0 1 .566 9.889z" fill="#9DCB6B" fill-rule="nonzero"/>
                    <path d="M209.961 303.826a26.347 26.347 0 0 1-8.807 14.76c-13.677 12.3-41.008 17.491-70.602 11.907-39.68-7.38-68.437-31.537-64.255-53.751 4.182-22.214 39.729-34.022 79.409-26.642h.492a126.296 126.296 0 0 1 17.22 4.576 102.188 102.188 0 0 1 27.06 13.751c14.096 10.357 21.77 23.149 19.483 35.4z" fill="#9DCB6B" fill-rule="nonzero"/>
                    <path d="M209.961 303.826a26.347 26.347 0 0 1-8.807 14.76l-34.71-6.543a84.107 84.107 0 0 0-.492-16.925c-1.895-13.53-7.38-21.55-13.432-31.562l-1.082-1.796a49.717 49.717 0 0 1-5.24-11.66 126.296 126.296 0 0 1 17.22 4.576 20.762 20.762 0 0 1 10.873-.837 21.008 21.008 0 0 1 16.236 14.588c14.047 10.357 21.722 23.149 19.434 35.4z" fill="url(#q7jscnqhie)" fill-rule="nonzero"/>
                    <circle fill="#9DCB6B" fill-rule="nonzero" cx="109.249" cy="263.04" r="21.008"/>
                    <ellipse fill="#DCEDC8" fill-rule="nonzero" transform="rotate(-79.32 131.68 308.448)" cx="131.679" cy="308.448" rx="26.765" ry="35.768"/>
                    <path d="M226.32 316.176c-1.304 27.748-55.842 59.261-103.59 50.626-44.846-8.118-84.354-51.66-77.515-79.36a27.872 27.872 0 0 1 11.537-16.334c18.696-11.586 37.835 13.309 79.876 21.033 43.272 7.97 71.34-9.495 84.92 8.487a25.707 25.707 0 0 1 4.772 15.548z" fill="#DCEDC8" fill-rule="nonzero"/>
                    <path d="M158.744 334.38a39.508 39.508 0 0 1-21.599 13.923c-1.614.407-3.26.67-4.92.787a29.003 29.003 0 0 1-7.946-.369 31.488 31.488 0 0 1-8.044-2.681 33.038 33.038 0 0 1-4.231-2.46 45.289 45.289 0 0 1-16.384-21.451 24.846 24.846 0 0 0 9.643 2.46c2.951.016 5.9-.149 8.832-.492h4.797a45.879 45.879 0 0 1 24.895 6.051l1.23.665a29.52 29.52 0 0 0 4.6 2.115 29.077 29.077 0 0 0 9.127 1.452z" fill="#FF8A80" fill-rule="nonzero"/>
                    <ellipse fill="#546E7B" fill-rule="nonzero" transform="rotate(-49.32 116.405 296.711)" cx="116.405" cy="296.711" rx="4.157" ry="2.903"/>
                    <ellipse fill="#546E7B" fill-rule="nonzero" transform="rotate(-19.32 151.246 303.29)" cx="151.246" cy="303.289" rx="2.903" ry="4.157"/>
                    <circle fill="#37474F" fill-rule="nonzero" cx="108.806" cy="259.645" r="7.626"/>
                    <circle fill="#FFF" fill-rule="nonzero" opacity=".6" cx="110.159" cy="262.056" r="2.977"/>
                    <circle fill="#37474F" fill-rule="nonzero" cx="172.274" cy="271.625" r="7.626"/>
                    <circle fill="#FFF" fill-rule="nonzero" opacity=".6" cx="173.627" cy="274.011" r="2.977"/>
                    <path d="M106.124 323.9a12.3 12.3 0 0 0-1.328 6.962s1.673-4.92 3.985-5.978l-2.657-.984zM149.494 331.747a12.3 12.3 0 0 1-1.328 6.962s.27-5.289-1.525-7.035l2.853.073z" fill="#FFF" fill-rule="nonzero"/>
                    <path d="M193.085 317.283a64.108 64.108 0 0 1-13.505 11.316 42.09 42.09 0 0 1-16.58 6.174 28.29 28.29 0 0 1-17.442-3.149 56.974 56.974 0 0 0-16.187-6.223 65.854 65.854 0 0 0-17.343-.468 37.343 37.343 0 0 1-8.93 0c-2.999-.42-5.894-1.396-8.536-2.878a40.492 40.492 0 0 1-12.792-12.3 81.303 81.303 0 0 1-8.511-15.375 82.287 82.287 0 0 0 9.151 14.957 39.606 39.606 0 0 0 12.743 11.611 25.19 25.19 0 0 0 8.142 2.46c2.866.298 5.759.24 8.61-.172a67.33 67.33 0 0 1 17.786.369 58.622 58.622 0 0 1 16.531 6.494 27.7 27.7 0 0 0 16.63 3.223 41.82 41.82 0 0 0 16.334-5.609 63.96 63.96 0 0 0 13.9-10.43z" fill="#546E7B" fill-rule="nonzero"/>
                    <path d="m163.91 279.866-15.547 15.916a11.242 11.242 0 0 1-3.641-3.862l15.178-15.621a11.144 11.144 0 0 1 4.01 3.567z" fill="url(#cpdjn4whbf)" fill-rule="nonzero"/>
                    <path d="m165.878 285.82-11.488 11.783c-.661-.005-1.32-.07-1.968-.197a10.11 10.11 0 0 1-1.6-.418l14.342-14.76c.431 1.15.672 2.363.714 3.591z" fill="url(#rq9e7r4ofg)" fill-rule="nonzero"/>
                    <path d="m129.79 273.445-15.523 16.015a11.537 11.537 0 0 1-3.567-3.911l15.203-15.769a11.045 11.045 0 0 1 3.887 3.665z" fill="url(#5u4d2znu0h)" fill-rule="nonzero"/>
                    <path d="m131.758 279.399-11.489 11.783a13.678 13.678 0 0 1-1.968-.197 11.833 11.833 0 0 1-1.599-.443l14.342-14.76c.431 1.16.672 2.38.714 3.617z" fill="url(#z8m9e54e5i)" fill-rule="nonzero"/>
                    <circle stroke="#616161" stroke-width="1.968" cx="120.466" cy="279.841" r="11.365"/>
                    <circle stroke="#616161" stroke-width="1.968" cx="154.463" cy="286.237" r="11.365"/>
                    <path d="M131.66 282.08a10.357 10.357 0 0 1 11.635 2.19" stroke="#616161" stroke-width="1.968"/>
                    <path d="M137.145 348.303c-1.614.407-3.26.67-4.92.787a29.003 29.003 0 0 1-7.946-.369 31.488 31.488 0 0 1-8.044-2.681 33.038 33.038 0 0 1-4.231-2.46c-1.28-3.198-2.46-8.266 1.402-11.07 5.855-4.256 12.497 4.207 12.497 4.207s7.921-5.142 12.964-.492c4.157 3.714 1.353 8.88-1.722 12.078z" fill="#E53935" fill-rule="nonzero" opacity=".24"/>
                    <path d="M132.323 349.09a29.003 29.003 0 0 1-7.945-.369 31.488 31.488 0 0 1-8.143-2.681 8.93 8.93 0 0 1 16.088 3.149v-.099z" fill="#E53935" fill-rule="nonzero" opacity=".24"/>
                    <path d="M124.304 346.778s-13.604 20.098-5.732 39.508" stroke="#FF5252" stroke-width="3.862" stroke-linecap="round" stroke-linejoin="round"/>
                    <path d="M116.875 364.834s-3.813 15.99-15.597 16.384" stroke="#FF5252" stroke-width="3.862" stroke-linecap="round" stroke-linejoin="round"/>
                </g>
                <circle cx="375.724" cy="375.248" r="375.027" fill="url(#d7oi0zjphj)" fill-rule="nonzero" transform="translate(-310.78 -282.9)" opacity=".15"/>
                <path fill="url(#sc4t8tidjk)" fill-rule="nonzero" d="M0 0h329.64v467.4H0z"/>
            </g>
        </g>
        <path d="M10 418h329.64v46.74c0 6.793-5.507 12.3-12.3 12.3H22.3c-6.793 0-12.3-5.507-12.3-12.3V418z" fill-opacity=".6" fill="#202538"/>
        <text font-family="LacaText-SemiBold, Laca Text" font-size="20" font-weight="500" letter-spacing=".667" fill="#FFF" transform="translate(10 418)">
                        <tspan x="120.233" y="37.76">Python X</tspan>
                    </text>
    </g>
</svg>
